<?xml version="1.0" encoding="UTF-8"?>
<svg id="Layer_1" data-name="Layer 1" xmlns="http://www.w3.org/2000/svg" xmlns:xlink="http://www.w3.org/1999/xlink" viewBox="0 0 509.17 508.56">
  <defs>
    <style>
      .cls-1 {
        fill: #030202;
      }

      .cls-2 {
        fill: #cba366;
      }

      .cls-3 {
        fill: #cfa869;
      }

      .cls-4 {
        fill: #bf9155;
      }

      .cls-5 {
        fill: #d2ab6c;
      }

      .cls-6 {
        fill: url(#linear-gradient);
      }

      .cls-7 {
        fill: #e8ce92;
      }

      .cls-8 {
        fill: #c99e60;
      }

      .cls-9 {
        fill: #dab776;
      }

      .cls-10 {
        fill: #d2a96f;
      }

      .cls-11 {
        fill: #cda568;
      }

      .cls-12 {
        fill: #cca363;
      }

      .cls-13 {
        fill: #020202;
      }

      .cls-14 {
        fill: #e6c884;
      }

      .cls-15 {
        fill: #d4b074;
      }

      .cls-16 {
        fill: #040403;
      }

      .cls-17 {
        fill: #cda669;
      }

      .cls-18 {
        fill: #040303;
      }

      .cls-19 {
        fill: #c99f64;
      }

      .cls-20 {
        fill: #e8ce93;
      }

      .cls-21 {
        fill: #e3c584;
      }

      .cls-22 {
        fill: #cca160;
      }

      .cls-23 {
        fill: #cfa367;
      }

      .cls-24 {
        fill: #c29860;
      }
    </style>
    <linearGradient id="linear-gradient" x1="184.68" y1="215.17" x2="-36.75" y2="644.42" gradientTransform="translate(206.63 15.35) scale(.72)" gradientUnits="userSpaceOnUse">
      <stop offset="0" stop-color="#e7cc8f"/>
      <stop offset="1" stop-color="#c59a5e"/>
    </linearGradient>
  </defs>
  <path class="cls-18" d="M212.64,505.71c-99.18-15.4-181.41-91.39-205.17-188.71-10.73-43.96-10.04-90.28,3.02-133.84,12.34-41.16,35.38-78.36,65.64-108.32,27.56-27.3,61.2-47.29,98.15-59.57,27.08-9,54.55-12.52,82.86-11.94s56.83,6.27,83.75,16.81c28.82,11.28,54.98,27.21,78.05,48.46,5.89-8.37,12.48-14.82,21.46-18.07,4.48-6.96,10.21-12.67,18.03-15.55,4.95-5.98,11.26-10.36,18.29-13.86,5.23-6.58,19.78-16.95,27.18-20.78,1.7-.88,3.86.12,4.7.95,3.98,3.91-13.74,26.74-16.26,29.12l-8.01,7.54c-4.01,7.62-8.26,14.74-15.94,18.79-2.45,8.79-8.08,16-16.6,19.59-1.27,6.49-4.91,11.7-9.75,16.62,29.32,33.38,48.02,73.39,55.97,116.61,6.5,35.31,5.4,71.08-3.33,106.07-4.43,17.77-10.07,34.52-18.09,50.83-18.89,38.41-46.96,71.02-81.98,95.87-11.4,8.09-22.52,14.95-35.24,20.86-20.26,9.42-40.52,16.98-62.7,21.01-27.79,5.05-55.69,5.91-84.03,1.51ZM484.54,27.61c5.05-4.36,8.57-9.02,11.59-14.29-2.97,3.16-17.52,10.18-11.59,14.29ZM247.44,56.35c1.29-7.25-.38-14.85,6.84-17.31,4.41-1.5,8.71-1.63,13.03-2.37l-12.32-2.33c-7.62-1.44-7.39-12.17-8.99-17.6-1.22,5.01-.45,10.18-3.45,14.54-3.73,5.44-15.82,5.28-15.19,4.99-.41.18-.92.55-1.15,1.44,7.37.1,16.28.08,18.61,8.63.98,3.59,1.37,6.98,2.62,10.01ZM467.56,47.54c4.7-3.62,7.18-7.6,9.64-11.7-1.22-2.28-1.53-4.24-2.18-6.62-5.9,3.83-13.5,10.39-7.46,18.32ZM450.8,67.39c5.63-2.59,8.4-7.35,10.48-12.32-2.31-4.14-2.8-7.85-3.58-12.05-3.68,2.53-7.43,5.1-9.62,9.19-2.56,4.77-.99,11.1,2.72,15.18ZM444.55,74.4c-3.25-4.6-5-9.1-5.46-15.42-4.55,2.81-8.97,6.06-11.19,11.24-2.46,5.74-.66,13.21,3.54,17.72,3.29,3.53,12.59-9.75,13.11-13.54ZM342.09,361.14c5.18,3.99,8.57,8.64,10.24,14.85l5.03,18.73c1.87,6.96,7.75,12.17,14.93,12.86,6.18.59,12.02-.83,17.79-3.44-9.68-10.76-23.42-27.83-25.91-41.29-.15-.81,1.51-2.01,2.26-1.71,7.77,11.14,15.88,22.19,25.37,32.03,3.75,3.89,7.75,7.27,12.89,8.65,10.45,2.82,20.88-3.44,24.41-13.48,1.5-4.27,2.23-8.26,2.62-12.49.89-9.71,10.29-8.18,10.1-19.99-.09-5.41-2.23-9.77-5.37-14.46l-42.78-63.74c-7.01-10.44-13.37-20.55-19.04-31.86-9.88-19.68-.52-26.36-9.6-38.97-4.5-6.25-8.28-12.44-11.38-19.38-11.7,1.57-21.67-4.38-26.24-15.01-2.51-5.84-3.27-11.95-3.24-19.19l-20.77-8.77c-1.96,1.43-2.81,3.59-5.25,4.65l1.89-27.92c1.26-18.6,5.05-36.11,12.57-53.14.48-1.08.18-2.48-.23-3.17-.34-.57-1.62-.78-2.74-.38-9.07,3.21-16.45,8.53-23.75,14.91-26.4,23.07-42.04,57.36-36.27,93.44-6.63-7.31-7.79-16.83-9.23-26.19-22.24,4.24-51.59,19.76-69.02,32.15-28.3,20.12-53.3,44.68-73.34,73.26-11.57,16.5-20.73,33.71-29.37,51.96-11.03,23.33-18.25,47.38-23.44,72.84,16.2,27.26,36.79,51.53,62.03,70.59,48.29,36.46,107.07,54.12,167.54,47.04-5.78-34.09-20.14-57.68-38.6-85.4-23.82-36.21-40.89-70.57-38.08-115.12,1.55-24.6,9.66-52.03,27.27-69.91,3.22-3.27,6.27-6.06,11.24-7.72-9.53,12.88-15.78,28.87-16.43,45.82-1.26,32.65,22.14,60.12,54.29,64.5,18.6,2.53,36.42-1.83,51.66-12.78-5.67,8.16-14.8,12.97-20.41,21.99,3.29,3.4,7.14,5.72,11.02,8.22,8.56,5.52,17.09,10.66,25.36,17.03ZM425.62,95.87c-5.26-5.35-6.52-11.88-7.2-19.93-5,2.14-10.48,6.33-12.07,12.23-1.96,7.27.48,15.13,4.15,21.39,3.22,5.48,14.57-7.31,15.11-13.68ZM174.92,160.67c22.14-11.72,40.64-20.8,65.78-26.03,1.17-10.34-5.46-19.38-15.36-22.39-15.77-4.79-26.44.3-43.04-3.85-15.06-3.77-24.19-16.13-23.69-32.27-4.52,2.59-6.49,7.33-8.02,12.1-3.45,10.77-1.39,22.51,4.66,31.8,6.67,10.24,19.82,12.54,31.47,12.35-19,5.27-37.69,11.4-57.4,5.2-11.04-3.47-19.63-10.84-24.78-21.75-1.77,7.83-.61,15.33,1.71,22.48,2.84,8.72,9.22,15.25,17.76,19,15.95,6.99,34.09,4.55,50.92,3.38ZM325.05,142.42c6.08-17.55,12.83-33.6,21.25-50.18-2.66-.58-4.88.65-7.15,1.8-11.27,5.72-21.48,12.26-31.65,20.2l-1.02,20.94c6.09,2.76,11.9,5.07,18.57,7.23ZM396.38,133.25c5.33-3.39,8.16-8.94,9.81-14.99-7.25-6.47-8.71-15.4-8.3-24.98-5.91,2.77-10.49,6.79-13.03,12.2-2.51,8.95-.7,18.42,4.13,26.29,1.63,2.66,4.41,3.38,7.39,1.48ZM373,159.76c7.47-3.05,11.08-10.72,14.04-17.47-10.3-7.76-12.09-17.86-11.78-29.62-5.66,2.77-10.98,6.91-13.22,12.76-6.85,17.84,5.76,36.45,10.97,34.33ZM360.68,177.24c2.24-2.81,4.16-5.67,5.35-8.95-12.09-6.79-14.69-21.38-14.67-34.61-5.75,2.6-12.37,6.13-15.23,11.92-3.9,7.87-2.97,18.15.95,25.67,5.87,11.24,20.45,9.91,23.59,5.96ZM136.2,187.32l17.07-13.56c-10.31-.46-19.26-1.12-28.24-4.1-11.2,6.89-24.62,8.96-36.96,4.79-11.3-3.82-18.76-12.79-23.37-23.89-5.05,17.79-1.44,37.2,16.89,46.31,8.46,4.2,17.73,5.92,27.29,4.62,17.79-2.43,13.17-2.93,27.31-14.16ZM427.92,214.37c.98-6.16,2.6-3.45,5.04-5.89-3.26-.38-4.86-1.75-5.74-5.13-1.51,2.2-.91,3.75-2.67,4.52-1.26.55-2.77.15-4.38,1.31,2.16.53,4.19-.17,5.59,1.45.81.94,1.9,2.8,1.37,5.23,1.15,1.05,1.47.03.79-1.51ZM38.65,260.17c13.63,3.53,25.97.19,37.43-6.26,8.95-14.37,19.27-26.99,31.43-40.18-11.54.54-21.9.25-31.78-5.45-6.59,10.33-16.14,17.42-28.02,20.31-11.69,1.93-22.79-1.68-31.81-9.72-2.08,17.69,3.29,36.25,22.75,41.29ZM457.14,274.2c3.85-2.91,8.68-2.64,13.16-3.56-3.67-1.75-11.91.04-14.77-5.21-1.94-3.55-1.99-7.49-2.99-11.25-1.83,4.65-.69,9.78-4.09,12.97s-8.78,2.08-13.18,3.9c5.01.58,10.64.12,14.19,4.01,2.64,2.89,1.96,7.34,4.03,10.6,1.63-3.94.23-8.87,3.65-11.46ZM17.42,305.49c10.72,4.47,20.63,5.88,31.32,3.07,4.7-11.56,9.6-22.59,15.59-34.19-19.21,7.53-29.89,11.86-50.66,5.18.6,9.05,1.54,17.37,3.75,25.94ZM42.91,323.35c-8.62-.55-15.03-1.66-22.08-4.74,3.05,12.78,7.91,24.62,13.62,37.27,2.11-10.82,4.92-21.43,8.46-32.53ZM309.96,443.36c1.7-2.85,5.11-2.43,7.79-2.91-2.41-1.71-5.29-.67-7.29-2.59-2.26-2.18-1.79-5.37-3.04-8.12-.22,3.32-.23,7.1-3.37,8.86-2.5,1.4-5.43.26-7.45,1.89,3.15.53,6.64.2,8.85,2.35,2.33,2.26,1.93,5.44,2.77,8.43,1.03-2.54.17-5.27,1.74-7.9Z"/>
  <path class="cls-9" d="M38.65,260.17c-19.46-5.04-24.83-23.6-22.75-41.29,9.02,8.04,20.12,11.65,31.81,9.72,11.88-2.9,21.43-9.99,28.02-20.31,9.88,5.7,20.23,5.99,31.78,5.45-12.16,13.19-22.47,25.81-31.43,40.18-11.46,6.45-23.79,9.79-37.43,6.26Z"/>
  <path class="cls-5" d="M17.42,305.49c-2.21-8.57-3.15-16.89-3.75-25.94,20.77,6.68,31.45,2.35,50.66-5.18-5.99,11.59-10.89,22.63-15.59,34.19-10.69,2.81-20.61,1.4-31.32-3.07Z"/>
  <path class="cls-8" d="M42.91,323.35c-3.53,11.1-6.35,21.71-8.46,32.53-5.71-12.65-10.58-24.49-13.62-37.27,7.05,3.09,13.46,4.19,22.08,4.74Z"/>
  <path class="cls-24" d="M457.14,274.2c-3.42,2.59-2.02,7.52-3.65,11.46-2.07-3.27-1.39-7.71-4.03-10.6-3.55-3.89-9.18-3.43-14.19-4.01,4.4-1.81,9.68-.61,13.18-3.9s2.26-8.32,4.09-12.97c1,3.77,1.05,7.7,2.99,11.25,2.87,5.25,11.1,3.46,14.77,5.21-4.48.92-9.31.64-13.16,3.56Z"/>
  <path class="cls-22" d="M309.96,443.36c-1.57,2.63-.71,5.36-1.74,7.9-.83-2.99-.44-6.17-2.77-8.43s-5.7-1.82-8.85-2.35c2.02-1.62,4.95-.48,7.45-1.89,3.14-1.76,3.15-5.54,3.37-8.86,1.25,2.75.78,5.94,3.04,8.12,2,1.93,4.88.89,7.29,2.59-2.68.47-6.09.06-7.79,2.91Z"/>
  <path class="cls-7" d="M174.92,160.67c-16.83,1.18-34.97,3.62-50.92-3.38-8.54-3.74-14.92-10.28-17.76-19-2.32-7.15-3.49-14.65-1.71-22.48,5.15,10.91,13.74,18.28,24.78,21.75,19.71,6.2,38.4.07,57.4-5.2-11.65.18-24.8-2.11-31.47-12.35-6.04-9.29-8.11-21.03-4.66-31.8,1.53-4.77,3.5-9.52,8.02-12.1-.5,16.14,8.63,28.5,23.69,32.27,16.6,4.16,27.27-.94,43.04,3.85,9.9,3.01,16.53,12.05,15.36,22.39-25.14,5.23-43.64,14.31-65.78,26.03Z"/>
  <path class="cls-21" d="M136.2,187.32c-14.14,11.23-9.52,11.73-27.31,14.16-9.56,1.31-18.83-.41-27.29-4.62-18.33-9.12-21.94-28.52-16.89-46.31,4.61,11.1,12.08,20.07,23.37,23.89,12.33,4.17,25.75,2.1,36.96-4.79,8.98,2.99,17.93,3.64,28.24,4.1l-17.07,13.56Z"/>
  <path class="cls-20" d="M325.05,142.42c-6.67-2.16-12.48-4.47-18.57-7.23l1.02-20.94c10.16-7.95,20.38-14.48,31.65-20.2,2.27-1.15,4.49-2.39,7.15-1.8-8.42,16.58-15.17,32.63-21.25,50.18Z"/>
  <path class="cls-19" d="M247.44,56.35c-1.25-3.04-1.64-6.42-2.62-10.01-2.33-8.54-11.24-8.53-18.61-8.63.23-.88.74-1.25,1.15-1.44-.64.29,11.46.44,15.19-4.99,2.99-4.36,2.22-9.52,3.45-14.54,1.61,5.43,1.37,16.16,8.99,17.6l12.32,2.33c-4.32.74-8.62.87-13.03,2.37-7.22,2.46-5.55,10.06-6.84,17.31Z"/>
  <path class="cls-11" d="M360.68,177.24c-3.14,3.95-17.73,5.28-23.59-5.96-3.93-7.52-4.86-17.81-.95-25.67,2.87-5.78,9.48-9.32,15.23-11.92-.03,13.23,2.58,27.82,14.67,34.61-1.19,3.28-3.11,6.13-5.35,8.95Z"/>
  <path class="cls-2" d="M373,159.76c-5.21,2.12-17.82-16.49-10.97-34.33,2.25-5.86,7.57-9.99,13.22-12.76-.3,11.77,1.49,21.86,11.78,29.62-2.96,6.75-6.57,14.42-14.04,17.47Z"/>
  <path class="cls-3" d="M396.38,133.25c-2.99,1.9-5.76,1.19-7.39-1.48-4.82-7.87-6.64-17.33-4.13-26.29,2.54-5.42,7.12-9.44,13.03-12.2-.42,9.58,1.04,18.51,8.3,24.98-1.65,6.05-4.48,11.6-9.81,14.99Z"/>
  <path class="cls-17" d="M425.62,95.87c-.54,6.37-11.89,19.16-15.11,13.68-3.68-6.26-6.12-14.12-4.15-21.39,1.59-5.89,7.07-10.08,12.07-12.23.67,8.05,1.94,14.59,7.2,19.93Z"/>
  <path class="cls-15" d="M444.55,74.4c-.52,3.79-9.82,17.07-13.11,13.54-4.19-4.51-5.99-11.98-3.54-17.72,2.22-5.19,6.64-8.44,11.19-11.24.46,6.32,2.2,10.82,5.46,15.42Z"/>
  <path class="cls-10" d="M450.8,67.39c-3.72-4.08-5.29-10.41-2.72-15.18,2.2-4.09,5.94-6.66,9.62-9.19.79,4.21,1.28,7.91,3.58,12.05-2.08,4.97-4.85,9.73-10.48,12.32Z"/>
  <path class="cls-23" d="M467.56,47.54c-6.04-7.93,1.57-14.49,7.46-18.32.65,2.39.96,4.34,2.18,6.62-2.46,4.1-4.94,8.07-9.64,11.7Z"/>
  <path class="cls-4" d="M484.54,27.61c-5.93-4.11,8.62-11.14,11.59-14.29-3.03,5.27-6.55,9.93-11.59,14.29Z"/>
  <path class="cls-12" d="M427.92,214.37c.68,1.54.35,2.55-.79,1.51.53-2.43-.56-4.29-1.37-5.23-1.4-1.62-3.44-.92-5.59-1.45,1.61-1.16,3.12-.76,4.38-1.31,1.76-.77,1.17-2.33,2.67-4.52.88,3.38,2.48,4.75,5.74,5.13-2.44,2.43-4.06-.27-5.04,5.89Z"/>
  <path class="cls-6" d="M342.09,361.14c-8.27-6.37-16.8-11.51-25.36-17.03-3.89-2.51-7.74-4.82-11.02-8.22,5.61-9.03,14.73-13.83,20.41-21.99-15.24,10.94-33.06,15.31-51.66,12.78-32.15-4.38-55.55-31.85-54.29-64.5.65-16.95,6.9-32.93,16.43-45.82-4.97,1.67-8.02,4.45-11.24,7.72-17.6,17.89-25.71,45.32-27.27,69.91-2.81,44.54,14.26,78.9,38.08,115.12,18.46,27.73,32.82,51.31,38.6,85.4-60.46,7.08-119.25-10.58-167.54-47.04-25.24-19.06-45.83-43.33-62.03-70.59,5.19-25.46,12.41-49.52,23.44-72.84,8.64-18.26,17.8-35.47,29.37-51.96,20.04-28.58,45.04-53.14,73.34-73.26,17.43-12.39,46.78-27.9,69.02-32.15,1.44,9.36,2.6,18.88,9.23,26.19-5.77-36.08,9.87-70.37,36.27-93.44,7.3-6.38,14.69-11.71,23.75-14.91,1.13-.4,2.4-.19,2.74.38.41.69.71,2.09.23,3.17-7.52,17.03-11.32,34.54-12.57,53.14l-1.89,27.92c2.44-1.05,3.29-3.22,5.25-4.65l20.77,8.77c-.03,7.24.74,13.36,3.24,19.19,4.57,10.63,14.54,16.59,26.24,15.01,3.1,6.94,6.88,13.13,11.38,19.38,9.09,12.61-.28,19.29,9.6,38.97,5.68,11.3,12.04,21.42,19.04,31.86l42.78,63.74c3.15,4.69,5.28,9.05,5.37,14.46.19,11.81-9.2,10.29-10.1,19.99-.39,4.23-1.12,8.21-2.62,12.49-3.53,10.04-13.97,16.3-24.41,13.48-5.14-1.39-9.14-4.76-12.89-8.65-9.49-9.84-17.6-20.89-25.37-32.03-.75-.31-2.41.9-2.26,1.71,2.48,13.47,16.23,30.53,25.91,41.29-5.77,2.61-11.62,4.03-17.79,3.44-7.17-.68-13.06-5.9-14.93-12.86l-5.03-18.73c-1.67-6.21-5.06-10.86-10.24-14.85ZM288.74,137.04c1.31-6.06,2.33-11.84,2.9-17.99,1.14-12.53,3.66-24.2,6.11-37.16-19.77,13.78-31.87,41.71-32.62,64.43.42,7.74.39,15.21,3.96,21.95,9.7-4.58,17.55-21.51,19.65-31.24ZM332.78,213.1c-16.81-5.22-23.81,2.54-42.92-6.79.59,9.22,7.95,14.32,16.2,16.01-3.99,9.38.37,19.03,8.39,23.33s18.27,2.21,24.05-6.22c2.19,3.64,2.46,7.07,4.91,10.09,4.25-14.56,4.05-29.32-10.62-36.42ZM183.82,456.08c-13.62-29.7-20.94-60.42-21.76-92.98-.94-37.72,6.18-78.54,28.2-110.09-9.82,3.61-20.95,22.92-25.13,31.9-19.58,42.13-21.75,89.02-3.05,132.06,6.07,13.97,12.36,27.19,21.74,39.11ZM400.13,318.04l-23.44-32.63c-5.8-8.07-10.6-15.97-17.46-23.49,5.34,18.89,26.32,44.52,40.9,56.12ZM418.45,351.55c.43-4.41,3.89-6.98,8.51-6.45-2.1-4.66-6.81-6.57-11.62-5.79-4.04.65-7.82,3.84-8.96,8.75-2.12,9.17,1.3,18.84,8.37,25.12,2.46,2.19,5.72,1.21,7.16-1.46,3.51-6.53-4.35-10.89-3.45-20.17Z"/>
  <path class="cls-13" d="M183.82,456.08c-9.38-11.93-15.67-25.15-21.74-39.11-18.7-43.04-16.53-89.93,3.05-132.06,4.17-8.98,15.31-28.28,25.13-31.9-22.01,31.55-29.14,72.38-28.2,110.09.81,32.55,8.14,63.28,21.76,92.98Z"/>
  <path class="cls-1" d="M288.74,137.04c-2.11,9.72-9.95,26.65-19.65,31.24-3.57-6.74-3.54-14.21-3.96-21.95.75-22.72,12.86-50.65,32.62-64.43-2.45,12.95-4.97,24.62-6.11,37.16-.56,6.15-1.59,11.93-2.9,17.99Z"/>
  <path class="cls-1" d="M418.45,351.55c-.9,9.28,6.96,13.64,3.45,20.17-1.44,2.67-4.7,3.65-7.16,1.46-7.07-6.28-10.49-15.96-8.37-25.12,1.14-4.91,4.91-8.1,8.96-8.75,4.81-.77,9.52,1.14,11.62,5.79-4.62-.53-8.08,2.04-8.51,6.45Z"/>
  <path class="cls-16" d="M400.13,318.04c-14.58-11.6-35.55-37.23-40.9-56.12,6.86,7.52,11.66,15.42,17.46,23.49l23.44,32.63Z"/>
  <path class="cls-13" d="M332.78,213.1c14.67,7.1,14.87,21.87,10.62,36.42-2.45-3.02-2.71-6.45-4.91-10.09-5.78,8.43-15.77,10.66-24.05,6.22s-12.38-13.95-8.39-23.33c-8.25-1.69-15.6-6.79-16.2-16.01,19.11,9.33,26.11,1.58,42.92,6.79ZM334.39,227.4c-2.02-4.19-5.5-6.14-9.6-5.87-2.88.23-4.37,2.71-3.71,5.61.72,3.16,3.44,5.23,6.26,5.19s6.1-1.44,7.05-4.93Z"/>
  <path class="cls-14" d="M334.39,227.4c-.94,3.48-4.18,4.88-7.05,4.93s-5.54-2.03-6.26-5.19c-.66-2.91.83-5.38,3.71-5.61,4.1-.26,7.58,1.69,9.6,5.87Z"/>
</svg>