<?xml version="1.0" encoding="UTF-8"?>
<svg id="Layer_1" data-name="Layer 1" xmlns="http://www.w3.org/2000/svg" viewBox="0 0 410.17 512">
  <defs>
    <style>
      .cls-1 {
        fill: #040404;
      }

      .cls-2 {
        fill: #f0b150;
      }

      .cls-3 {
        fill: #030304;
      }

      .cls-4 {
        fill: #eb605c;
      }

      .cls-5 {
        fill: #e96659;
      }

      .cls-6 {
        fill: #ec7268;
      }

      .cls-7 {
        fill: #f0b04d;
      }

      .cls-8 {
        fill: #ea6759;
      }

      .cls-9 {
        fill: #eed5be;
      }

      .cls-10 {
        fill: #e76f63;
      }

      .cls-11 {
        fill: #e9665a;
      }

      .cls-12 {
        fill: #d6bdb8;
      }

      .cls-13 {
        fill: #040304;
      }

      .cls-14 {
        fill: #e9685b;
      }

      .cls-15 {
        fill: #e96a59;
      }

      .cls-16 {
        fill: #5f87a1;
      }

      .cls-17 {
        fill: #806790;
      }

      .cls-18 {
        fill: #5590aa;
      }

      .cls-19 {
        fill: #558fa9;
      }

      .cls-20 {
        fill: #eedcc4;
      }

      .cls-21 {
        fill: #ec6b5d;
      }

      .cls-22 {
        fill: #d9bbb6;
      }

      .cls-23 {
        fill: #fcfcfd;
      }

      .cls-24 {
        fill: #eddcc8;
      }

      .cls-25 {
        fill: #e8685c;
      }

      .cls-26 {
        fill: #e8e7e7;
      }

      .cls-27 {
        fill: #030203;
      }

      .cls-28 {
        fill: #5690aa;
      }

      .cls-29 {
        fill: #050505;
      }

      .cls-30 {
        fill: #ec6d68;
      }

      .cls-31 {
        fill: #d8bdb8;
      }

      .cls-32 {
        fill: #e9675c;
      }

      .cls-33 {
        fill: #4a7d90;
      }

      .cls-34 {
        fill: #181717;
      }

      .cls-35 {
        fill: #e8695d;
      }

      .cls-36 {
        fill: #020202;
      }

      .cls-37 {
        fill: #d9bfb9;
      }

      .cls-38 {
        fill: #e86a5b;
      }

      .cls-39 {
        fill: #5591ab;
      }

      .cls-40 {
        fill: #e9685c;
      }

      .cls-41 {
        fill: #ecd4bd;
      }

      .cls-42 {
        fill: #f0b14e;
      }

      .cls-43 {
        fill: #dac0b9;
      }

      .cls-44 {
        fill: #edd4bc;
      }

      .cls-45 {
        fill: #dac0bb;
      }

      .cls-46 {
        fill: #d7bcb7;
      }

      .cls-47 {
        fill: #f1b052;
      }

      .cls-48 {
        fill: #e7695f;
      }

      .cls-49 {
        fill: #e76659;
      }

      .cls-50 {
        fill: #dec4bc;
      }

      .cls-51 {
        fill: #f1b151;
      }

      .cls-52 {
        fill: #ed6d64;
      }

      .cls-53 {
        fill: #d0b3ae;
      }

      .cls-54 {
        fill: #eb6d64;
      }

      .cls-55 {
        fill: #eb6963;
      }

      .cls-56 {
        fill: #e3c7a9;
      }

      .cls-57 {
        fill: #ecd3ba;
      }

      .cls-58 {
        fill: #e8675a;
      }

      .cls-59 {
        fill: #eedcc5;
      }

      .cls-60 {
        fill: #e46859;
      }

      .cls-61 {
        fill: #eedcc3;
      }

      .cls-62 {
        fill: #e9746d;
      }

      .cls-63 {
        fill: #eedec9;
      }

      .cls-64 {
        fill: #5590ab;
      }

      .cls-65 {
        fill: #e86659;
      }

      .cls-66 {
        fill: #e86758;
      }

      .cls-67 {
        fill: #e96759;
      }

      .cls-68 {
        fill: #f26d60;
      }

      .cls-69 {
        fill: #e9675a;
      }

      .cls-70 {
        fill: #ed6762;
      }

      .cls-71 {
        fill: #e9675b;
      }

      .cls-72 {
        fill: #d9bfba;
      }

      .cls-73 {
        fill: #5592ac;
      }

      .cls-74 {
        fill: #eeddc5;
      }
    </style>
  </defs>
  <g id="Generative_Object" data-name="Generative Object">
    <path class="cls-34" d="M392.5,309.48c-.7-.14-.76.76-.04.64,9.34,4.93,15.35,13.63,15.58,24.28.28,12.79-5.5,24.47-16.1,32.4-.26.19-1.03.32-1.03.83,0,.48.74.68,1,.87,15.72,11.86,15.38,33.31,7.89,49.53,8.23,8.98,10.56,19.57,10.35,30.23-.3,15.68-8.79,30.03-23.77,36.47-7.83,3.37-15.77,4.91-24.11,5.7-5.69.54-11.39.22-17.09.09-2.8-.07-6.14-1.71-8.89-1.23-4.88.85-11.8,3.83-19.43,2.82-4.44-.59-9.04-1.19-13.3-2.59.08-.53-.52-.48-.87-.49-.42-.01-1.05,0-.89.55-12.74,6.83-27.36,7.19-40.8,1.53.22-.34-.12-.39-.33-.44-.47-.11-1,.08-.85.47-9.46,3.79-19.3,6.18-29.51,6.96s-12.33-.41-21.6-1.22c-7.79,1.9-14.93,3.82-22.66,4.49-2.24.19-4.57.05-6.72.46s-4.3.11-6.44-.03l-6.16-.4c-2.68-.17-5.33-.77-7.77-1.54.18-.3-.1-.41-.33-.47-.49-.13-.95.12-.85.48-15.49,6.5-21.16,6.73-36.47,3.31.23-.33-.09-.5-.34-.5h-.8c-1.86-.05-17.43,10.16-38.15,1.56-1.04-.43-1.22-.54-2.28,0-7.78,3.93-15.91,6.7-24.67,7.48-12.68,1.13-25.65-.98-36.55-8.23-10.12-6.73-16.34-17.04-18.1-28.96-.64-4.32-.42-9.2,0-13.58.69-7.06,3.97-13.1,7.05-19.37-1.1-4.7-2.7-9.71-2.66-14.49l.02-2.94c.06-7.29,2.03-13.95,5.14-20.15.57-1.14.39-1.18.04-2.3-4.2-13.44-3.03-26.78,4.79-39.84-6.21-18.98-10.23-34.06,2.47-52.3-.6-6.54-1.37-14.3.79-20.73-9.43-20.42-15.44-41.02-17.11-62.89l-.56-7.25c-.55-7.2-.46-14.66.01-21.88l.54-8.35c1.55-24.08,8.41-47.31,19.04-69.75C50.57,54.13,115.47,6.07,183.77.92l7.59-.57c9.23-.69,24.72-.29,33.89.6,93.76,9.11,172.56,88.13,182.64,180.56l.67,6.12.51,9.12c.24,4.29.57,8.95,0,13.22-.42,3.11.1,6.07-.53,9.05-.41,1.94-.18,3.81-.45,5.78-1.56,11.65-3.82,23.11-7.51,34.05,2.62,5.54,2.67,16.24,1.97,22.05-1.23,10.24-5.26,19.52-10.06,28.57ZM171.47,500.5c-.05.08-.03.25.11.54h9.06c.13-.3.15-.46.11-.54,2.7,0,5.06,0,7.64-.44l11.63-2c2.92-.5,5.83-2.29,8.68-2.42,3.18-.15,6.6,1.19,9.86,1.43,13.79,1,29.15-1.86,41.92-7.41,13.75,5.93,29.14,6.25,41.97-1.93,4.54,2.12,9.04,2.6,13.78,3.29,6.99,1.02,13.45-.98,20.09-3.01,2.81-.17,6.05,1.34,8.89,1.42,5.86.16,11.77.44,17.6-.1,8.33-.78,16.17-2.57,23.79-5.96,13.74-6.11,21.56-18.94,22.58-33.48.8-11.41-2.54-22.02-10.22-31.89,2.72-8.18,5.92-17,4.81-25.79-1.29-10.27-6.01-18.62-15.25-24.65,10.54-6.55,16.72-16.1,18.25-27.51,1.63-12.14-3.55-24.36-16.44-29.29,5.5-9.09,9.15-17.78,10.94-27.45.44-2.36.28-4.72.76-6.76,1.04-4.38-1.15-14.34-2.34-18.15,4.26-12.84,6.92-25.4,7.81-38.51l.53-7.75c.62-9.11.29-15.6-.56-24.53l-.66-6.89c-5.42-56.8-42.9-115.39-95.89-148.87-25.31-15.99-52.57-25.66-80.71-29.33-1.5-.2-3.03-.36-4.55-.5l-5.85-.56-12.05-.52c-2.05-.09-3.94-.09-5.99,0l-11.53.49c-2.28.1-4.36.28-6.5.51-33.9,3.54-67.18,15.79-95.87,36.76-25.69,18.78-47.04,43-62.19,71.14-12.21,22.68-20.3,46.3-22.92,70.82l-.69,6.41c-1.19,11.15-1.24,28.09-.05,39.41,2.28,21.54,7.73,42.26,17.17,62.18-2.2,6.43-2.18,15.7-.44,21.64-5.57,5.75-7.71,12.72-8.58,20.16-1.21,10.38,2.7,22.4,6.04,31.85-8.77,12.01-9.7,28.27-4.36,41.07-4.06,5.96-5.13,12.5-6.1,19.27-.93,6.49,1.49,13.15,2.75,19.26-5.12,9.44-8.61,19.48-7.55,29.62,2.35,22.35,18.67,36.47,40.33,39.06,14.11,1.69,27.02-1.47,39.55-8.13,20.8,9.35,32.75.27,38.95-.16s17.47,6.84,38.24-3.91c4.16.75,9.08,2.82,13.44,2.1Z"/>
    <path class="cls-26" d="M391.91,368.49c-.26-.19-1-.4-1-.87,0-.5.77-.63,1.03-.83l-.03,1.7Z"/>
    <path class="cls-26" d="M9.97,403.98c-.03-.77-.09-1.54.04-2.3.35,1.12.53,1.16-.04,2.3Z"/>
    <path class="cls-26" d="M82.02,504.24c-.75.13-1.54.14-2.28,0,1.06-.54,1.24-.43,2.28,0Z"/>
    <path class="cls-26" d="M121.31,503.18c-.18-.04-.58.14-.85.05-.17-.06-.37-.28-.29-.57h.8c.25.02.56.18.34.52Z"/>
    <path class="cls-26" d="M158.96,499.87c-.38.14-.8.13-1.19.01-.09-.36.36-.61.85-.48.23.06.51.17.33.47Z"/>
    <path class="cls-26" d="M261,491.11c-.37.19-.8.17-1.19.03-.14-.39.38-.58.85-.47.21.05.55.1.33.44Z"/>
    <path class="cls-26" d="M303.57,489.51c-.58.15-1.18.06-1.76.07-.16-.54.47-.57.89-.55.35,0,.95-.04.87.49Z"/>
    <path class="cls-26" d="M392.46,310.12c-.72.12-.66-.78.04-.64-.02.21-.04.43-.04.64Z"/>
    <path class="cls-23" d="M180.74,500.5h-9.28c-4.37.71-9.28-1.35-13.44-2.1-20.77,10.75-32,3.48-38.24,3.91s-18.16,9.51-38.95.16c-12.54,6.66-25.44,9.81-39.55,8.13-21.66-2.59-37.98-16.71-40.33-39.06-1.06-10.14,2.43-20.18,7.55-29.62-1.26-6.11-3.68-12.77-2.75-19.26.97-6.77,2.04-13.31,6.1-19.27-5.34-12.8-4.41-29.06,4.36-41.07-3.35-9.45-7.25-21.48-6.04-31.85.87-7.44,3.01-14.41,8.58-20.16-1.74-5.94-1.76-15.21.44-21.64-9.44-19.93-14.89-40.64-17.17-62.18-1.2-11.32-1.14-28.26.05-39.41l.69-6.41c2.62-24.52,10.71-48.14,22.92-70.82,15.15-28.14,36.5-52.36,62.19-71.14C116.55,17.73,149.83,5.48,183.73,1.94c2.14-.22,4.22-.41,6.5-.51l11.53-.49c2.05-.09,3.94-.09,5.99,0l12.05.52,5.85.56c1.53.14,3.05.31,4.55.5,28.14,3.67,55.4,13.34,80.71,29.33,52.99,33.48,90.47,92.07,95.89,148.87l.66,6.89c.85,8.93,1.18,15.42.56,24.53l-.53,7.75c-.89,13.1-3.55,25.67-7.81,38.51,1.19,3.8,3.37,13.77,2.34,18.15-.48,2.03-.32,4.39-.76,6.76-1.79,9.67-5.44,18.36-10.94,27.45,12.89,4.93,18.07,17.15,16.44,29.29-1.53,11.41-7.71,20.96-18.25,27.51,9.24,6.04,13.95,14.38,15.25,24.65,1.11,8.79-2.1,17.6-4.81,25.79,7.68,9.87,11.02,20.48,10.22,31.89-1.02,14.55-8.84,27.37-22.58,33.48-7.62,3.39-15.46,5.18-23.79,5.96-5.83.54-11.74.26-17.6.1-2.84-.08-6.08-1.59-8.89-1.42-6.64,2.03-13.1,4.03-20.09,3.01-4.73-.69-9.23-1.17-13.78-3.29-12.82,8.18-28.21,7.86-41.97,1.93-12.77,5.54-28.13,8.41-41.92,7.41-3.26-.24-6.68-1.58-9.86-1.43-2.85.14-5.76,1.92-8.68,2.42l-11.63,2c-2.58.44-4.94.44-7.64.44ZM334.98,472.33c8.69,4.74,23.07,3.47,32.38,2.11,14.54-2.12,26.45-9.98,27.25-25.75.23-4.61-.66-8.77-1.63-12.95-1.11-4.78-5.35-7.25-7.51-10.73-1.66-3.72.41-9.35-1.85-13.43,6.04-6.86,7.53-15.91,4.41-24.05-2.87-7.5-10.1-11.5-17.93-10.85-4.21.35-8.71,1.01-12.64.59l-7.44-8.93c9.56.91,18.46,2.2,24.02-6.39l-.61-3.28c9.08-2.3,16.48-8.66,18.56-17.93,1.47-6.53-.38-15.97-6.04-16.79-2.43-.35-6.15,5.28-10.96,5.35-3.89.05-8.43-8.98-4.22-15.48l7.88-12.17c8.3-12.83,12.19-29.5,6.09-44.08,13.79-39.32,11.03-82.94-4.49-121.51-12.81-31.82-32.56-57.21-58.32-78.5C251.47-.66,149.24,1.59,81.31,62.83c-16.78,15.12-31.63,32.79-42.66,53.24-16.33,30.29-24.34,63.49-22.78,97.94.84,18.51,3.35,36.26,10.28,53.52l7.85,19.54c-1.9,9-2.44,17.85.89,27.12-11.7,7.1-11.71,19.72-8.86,31.48.88,3.66,2.62,6.9,3.35,10.83,2.11,11.36-3.62,13.35-5.61,24.07-1.58,8.52-.12,17.06,5.05,24.29-10.97,11.12-10.79,26.82-2.93,39.44-6.83,5.25-9.76,12.98-10.24,21.09-.78,13.31,6.92,24.78,19.66,28.98,14.67,4.83,33.1,1.94,44.99-9.33,11.29,10.47,27.99,9.85,39.27-.4,11.95,8.26,27.74,6.67,37.53-3.7,4.7,3.73,10.06,5.28,16.05,5.45,10.04.28,25.7-1.59,34.36-7.28,3.82,1.94,7.68,3.11,12.01,3.26,12.06.4,31.67-1.57,40.71-10.33,11.01,11.3,30.93,9.81,41.09-2.1,9.5,8.63,23.37,9.19,33.67,2.38Z"/>
    <path class="cls-3" d="M334.98,472.33c-10.3,6.81-24.17,6.25-33.67-2.38-10.16,11.91-30.07,13.4-41.09,2.1-9.04,8.77-28.64,10.74-40.71,10.33-4.33-.14-8.2-1.32-12.01-3.26-8.66,5.69-24.32,7.56-34.36,7.28-5.99-.17-11.36-1.72-16.05-5.45-9.78,10.37-25.57,11.95-37.53,3.7-11.28,10.25-27.98,10.87-39.27.4-11.89,11.27-30.32,14.16-44.99,9.33-12.74-4.2-20.44-15.67-19.66-28.98.48-8.12,3.41-15.84,10.24-21.09-7.85-12.62-8.04-28.32,2.93-39.44-5.17-7.24-6.63-15.77-5.05-24.29,1.99-10.72,7.72-12.7,5.61-24.07-.73-3.93-2.46-7.18-3.35-10.83-2.84-11.77-2.83-24.38,8.86-31.48-3.34-9.27-2.79-18.12-.89-27.12l-7.85-19.54c-6.93-17.27-9.45-35.01-10.28-53.52-1.56-34.45,6.45-67.65,22.78-97.94,11.03-20.45,25.88-38.12,42.66-53.24C149.24,1.59,251.47-.66,321.93,57.57c25.76,21.29,45.51,46.68,58.32,78.5,15.52,38.57,18.28,82.19,4.49,121.51,6.09,14.58,2.21,31.25-6.09,44.08l-7.88,12.17c-4.21,6.5.34,15.53,4.22,15.48,4.81-.06,8.53-5.7,10.96-5.35,5.66.82,7.51,10.26,6.04,16.79-2.09,9.26-9.49,15.63-18.56,17.93l.61,3.28c-5.56,8.6-14.45,7.31-24.02,6.39l7.44,8.93c3.93.41,8.43-.24,12.64-.59,7.82-.66,15.05,3.35,17.93,10.85,3.12,8.14,1.64,17.19-4.41,24.05,2.26,4.07.19,9.7,1.85,13.43,2.17,3.48,6.4,5.95,7.51,10.73.97,4.18,1.86,8.34,1.63,12.95-.8,15.77-12.71,23.63-27.25,25.75-9.31,1.36-23.69,2.63-32.38-2.11ZM147.19,38.01c2.04-.71,12.92,13.38,15.2,15.92,39.55-10.03,79.91-6.91,115.89,13.47,37.66,21.33,65.63,57.19,76.89,99.08,6.11,23.09,6.69,46.61,1.59,69.62,8.35,2.08,15.51,6.09,20.98,12.38,3.63-12.41,5.55-24.45,6.12-37.23,1.06-26.22-3.81-51.73-14.38-75.63-9.22-20.85-21.92-39.87-37.93-56.1-19.63-19.91-42.9-35.28-69.43-44.59-13.95-4.9-27.46-7.6-42.15-8.89-38.55-3.37-77.27,5.74-109.74,26.9s-57.97,51.83-72.32,87.9c-17.37,43.66-16.97,93.91,3.04,136.92,6.76-10.81,6.44-21.85-.99-31.81,6.45.02,11.4,2.87,16.59,6.66-4.52-12.77-6.86-25.23-7.33-38.51-.86-24.26,3.09-48.21,13.17-70.52,17.69-39.15,49.51-71.22,89.98-85.84-.85-3.38-7.4-18.96-5.17-19.74ZM152.08,46.71l3.62,8.97c3.57-2.37-1.8-6.67-3.62-8.97ZM311.03,131.21c11.66,17.49,19.2,36.99,22.32,58.17,6.16-4.52,7.77-11.97,3.73-19.2,5.26,2.61,6.75,8.02,7.32,13.32.41,6.84-1.63,13.22-4.27,19.53-1.58,3.77-1.74,7.15.32,10.63,3.98,6.74,4.99,14.46,2.92,22.22,4.13-.35,7.73-.42,11.78-.23,11.08-52.02-7.12-104.51-44.36-141.31-20.7-20.46-46.29-34.84-74.92-40.88-21.85-4.61-50.38-4.25-72.08,2.39l14.21,18.95c1.88-.22,3.52-.11,5.35-.55l.54-8.68c.34-5.4,12.1,4.72,13.2,7.25,2.2-.71,5.37.57,7.31-.51,2.59-1.45,2.99-5.34,4.38-7.6,3.73,1.68,5.68,5.3,8.16,8.36,1.13,1.11,3.73.64,5.23.71l1.58-6.43c3.88,1.55,6.03,5.1,8.58,8.41,31.27,7.22,61,28.89,78.7,55.44ZM160.47,66.63l2.28-5.47c-1.18-2.24-2.56-4.02-4.39-6.08-1.09.73-.97,1.77-1.64,2.96,1.07,3.04,2.11,5.86,3.75,8.6ZM57.07,236.42c-1.77-15.39,5.99-25.11,17.61-33.62,1.14-26.28,9.94-51.59,24.95-73.22,15.21-21.96,36.33-38.91,61.27-48.75l-7.92-21.26c-10.35,3.52-19.43,8.38-28.68,14.04-34.29,22.61-59.32,57.17-69.19,97.29-5.07,20.62-5.39,41.87-1.99,62.66,2.27,13.91,7.99,22.71,8.39,33.98.05,1.47.43,4.53,1.86,5.11,2.09-.24,2.71-3.37,2.85-5.15.82-10.79-7.55-17.28-9.14-31.09ZM164.8,76.51c1.33-2.79,3-5.08,3.49-7.56-.49-2.25-3-4.28-4.51-6.14-4.19,6.48-2.1,6.65,1.02,13.7ZM185.02,84.98l3.89-.68c3.38-.59,6.23.67,8.57,3.18,1.46-6.55-4.43-16.13-9.93-18.85.34,3,1.87,9.88-1.1,11.18-2.18.96-4.55-2.44-6.57-1.47l5.15,6.63ZM141.66,134.26c-1.01,4.07-.16,8.99,3.17,11.88s6.74,1.49,9.73.73c3.87-.98,7.62-3.03,9.06-7.85l-5.92.06c1.73-.9,6.48-2.83,7.91-1.23s-.93,5.51-2.25,6.95c-3.2,3.51-7.35,5.46-12.28,6.49.84,2.76,3.81,5,6.72,3.92,3.08-1.15,5.38-3.23,8.08-4.78,14.82-8.54,23.27,3.15,36.14-7.53,4.58-3.8,6.73-9.75,7.36-16.28.35,2.92.83,6.49-.2,9.36-3.66,10.18-10.7,18.08-23.06,17.23-4.84,12.6-12.77,20.09-20.22,31.4-4.56,6.92-7.81,14.37-9.95,22.18,1.98,1.38,4.16,1.05,5.72,1.8,1.85.89,3.58,1.8,6.36,2.74,4.6-8.36,11.26-16.34,21.44-18.31-5.51,3.41-10.32,6.87-13.11,12.28-1.36,2.65-4.66,4.85-4.67,8.8,1.3,1.08,3.51,2.42,5.32,2.74.04.72,1.18.8.76,1.98-10.92-2.82-17.26-6.93-28.48-9.78-4.11-1.04-6.57.35-9.01,2.31-3.25,2.62-5.24,6.21-6.42,10.96-3.43,13.76-2.67,28.4,1.88,41.86.28.82.79,1.39,1.1,1.7.7.69,1.17-.37,1.76-.55,5.21-1.57,9.97-5.39,13.18-9.8.46.2.86-.53.58-1.11-3.22-4.61-6.84-19.91-2.18-23.69.86-.7,2.16.02,3.05,1,5.06,5.62,10.48,10.26,16.94,13.59,9.9,5.1,20.86,3.83,29.53-3.2,4.45-3.61,7.37-8.31,10.56-12.78-.74,2.32-1.94,6.86-3.36,9.15-6.46,10.46-16.27,19.39-30.56,16.46,15.68,22.52,50.96,38.72,77.64,41.02-.08-9.32,2.67-17.22,6.92-24.67,2.77-1.17,3.17-5.61,7.06-6.35-2.35,2.69-3.34,6.23-4.83,9.16-6.23,12.29-4.84,27.58,2.71,39.31,6.16,9.58,16.37,14.08,26.11,19.03,3.3,1.68,4.99,4.46,3.52,8.3-3.69,9.7-8.65,16.8-10.82,26.46,1.68,1.78,3.91,1.96,5.89,2.55,4.22,1.26,8.68,1.25,13.25-.12.39-7.89,2.66-15.23,6.19-22.45,2.35-4.8,4.96-9.15,6.58-14.16,3.42-10.54-12.8-8.25-10.04-20.73,1.01-4.56,2.85-8.79,4.9-13.04,4.21-8.73,8.49-20.81,6.32-30.73-2.54-11.6-9.82-21.06-19.78-27.16-5.53-3.39-11.2-5.63-17.21-7.93-17.14-6.54-33.26-14.56-41.66-32.05-11.37-23.67,3.08-49.32-10.96-81.6-2.91-6.7-6.5-12.78-12.03-17.94-1.88,1.17-2.67,3.21-5.3,3.53,8.08-10.96,8.51-25.56-.88-36.03-5.95,10.56-11.57,14.19-11.19,27.92-1.01-.74-.81-1.74-1.71-2.98-14.36-.31-8.26,7.64-20.5,14.01-2.3,1.19-4.45,3.19-7.41,2.87l3.64-5.35c-1.68-.18-3.27-.02-5.04.17-2.74,6.69-7.24,11.9-13.32,15.66s-11.17,6.26-12.75,12.59ZM169.22,86.82l5.54-9.15-5.09-6.97c-4.02,9.03-5.34,6.99-.45,16.12ZM229.76,90.7c2.07-5.9.89-12.48-3.27-17.4-1.31,4.77-2.99,8.62-6.95,11.05.69,5.14-.29,9.36-1.43,13.86,3.28,4.43,10.2-3.37,11.66-7.51ZM202.77,74.76c-2.01-.08-2.89-.2-4.12.22.58,1.31,1.1,2.32,1.98,3,.91-1.2,2.14-1.92,2.14-3.22ZM219.73,77.97c.55.57.88-.54,1.19-.87.45-.48,0-1.17-.49-1.26-.4-.07-1.32-.53-1.51.09-.21.7.37,1.59.8,2.04ZM302.07,238.21c1.92,1.52,2.7,2.55,4.61,3.07.29-9.94,5.06-18.06,12.52-23.99-.19.95.28,18.69,3.34,12.56,5.66-11.34-8.94-20.06,8.89-38.33-1.17-13.12-5.04-25.32-10.34-37.55-9.04-20.89-22.88-38.67-40.85-52.54-14.08-10.86-29.66-19.09-47.07-23.35,1.73,5.45,1.34,10.73-.92,15.86,3.84,2.52,8.37,2.1,11.98-.33,3.12-1.9,4.66-4.97,6.99-8.32,4.15,7.8,4.23,16.65.43,24.59,3.91,2.18,7.66,4.05,11.39,6.77,1.9-.81,2.97-1.87,4.7-2.35l-.52,6.11c15.73,13.33,27.97,30.09,34.9,49.54,7.4,20.76,8.69,47.12-.06,68.26ZM172.11,92.41c3.23-1.93,6.01-3.39,8.61-5.61-1.53-2.68-3.16-4.96-5.13-7.49l-5.54,9.63c.67,1.38.73,2.66,2.06,3.48ZM98.79,240.19l1.66-19.11c1.48-17.03.72-33.8,6.53-50.25,8.12-22.97,23.35-42.23,43.04-56.12,2.75-1.94,5.37-3.48,7.64-5.73-9.25-4.69-10.35-20.27-6.65-20.59-.23.02,6.96,6.49,14.73,4.29l-4.25-9.99c-48.6,18.86-81.5,66.45-85,118.21,4.68-3.67,6.04-8.94,7.26-14.92,2.78,8.9,1.85,18.13-2.69,26.28-9.98,17.92,1.14,31.52,4.88,29.4.47-.26.6-1.17.77-2.03,1.08-5.28-1.08-9.88-2.94-14.76,7.96,2.36,12.29,8.37,15.01,15.32ZM175.68,102.36c.3,1.89-.73,2.92.02,4.45,10.53-5.01,6.29-15.42,20.96-14.36,1.22-1,.15-3.15-1.07-4.09-3.38-2.6-7.74-2.63-11.57-.48l-11.5,6.61c-6.37,3.66-14.06,2.61-20.18-1.8,1.68,10.72,11.45,11.48,19.8,10.82,1.2.09,1.92-.65,3.53-1.15ZM231.53,116.54c9.15-1.31,16.69-5.43,19.11-13.87,1.16-4.03,1.54-8.23.28-12.28-4.78,8.12-14.03,9.67-21.45,4.94-2.43,3.03-4.78,4.84-7.65,6.48,4.06,4.5,6.88,9.21,9.71,14.73ZM265.63,118.2c-8.36,3.19-15.89,4.41-22.16-3.15-3.68,1.81-7.14,2.69-11.07,3.25,1.55,3.95,2.73,7.25,3.89,11.37,5.11,2.19,10.84,3.1,16.47,1.85,6.55-1.45,11.93-6.34,12.88-13.32ZM259.2,153.91c7.22-.8,12.82-6.05,14.14-12.95-4.17,3.85-9.43,4.61-14.78,2.79-4.07-1.39-7.71-4.94-9.25-9.66-4.62.22-8.22-.59-12.38-2.08,1.71,7.14,2.43,13.75,2.79,20.92,4.17,3.72,8.41,7.17,13.65,9.94,8.93,4.71,20.52.42,23.99-8.77-6.72,3.05-13.29,4.4-18.17-.18ZM128.36,165c1.15,1.88,3.2,2.17,4.7,1.6,5.42-2.07-.46-14.99-4.02-18.61.53,4.98-3.1,13.05-.68,17.01ZM272.84,176.69c-7.97.84-14.97-2.54-17.21-10.13-5.84-2.76-10.37-6.51-15.49-10.57l-.71,12.83c3.79,5.53,8.38,9.96,14.4,12.89,6.65,3.24,14.7,1.6,19.01-5.02ZM148.62,178.18c1.57,1.47,3.72.68,4.66-.1,4.11-3.39-2.39-11.73-4.64-15.51-.59,4.12-2.82,13.01-.02,15.62ZM284.05,213.42c.14,3.56-3.35,8.81,1.74,10.58,3.31-13.66,14.16-11.94,12.12-28.03-2.55-12.19-7.53-16.13-7.42-30.2-10.63,14.55-1.48,24.4-2.33,33.47-.46,4.88-3.27,10.09-7.62,9-1.53-.38-2.89-1.59-3.16-3.2l-.96-5.9c-4.13,4.24-5.1,18.22,1.71,19.09,3,.39,4.3-3.96,5.92-4.82ZM121.78,172.12l-3.42-5.78c-.99,2.63-1.21,5.2-.85,7.83.26,1.9,1.96,2.25,2.99,1.81,1.63-.68,2.32-2.12,1.28-3.86ZM239.47,181.18c.18,7.21,1.49,19.09,8.27,23.69,4.48,3.04,10.84,3.37,15.66.11-5.61-1.2-12.36-3.55-14.25-8.98,6.93,2.2,17.05,1.53,21.72-6.22-7.85,1.2-14.15-1.51-19.68-6.39-4.18-3.68-8.67-6.6-11.77-11.44-.48,3.48-.02,6.27.05,9.23ZM125.55,185.12c-3.04,1.62-5.45,3.77-7.53,7.25-6.52,10.91-11.22,23.01-13.26,35.85-.25,1.58,2.11,1.44,2.94,1.65,3.27.83,9.88.44,13.57-.9,1.53-.73.92-3.43,1.23-4.88l2.26-10.46c.36-1.65.68-3.2,1.4-4.56.35-1.67,1.07-3.33,2.16-4.95s2.96-1.56,4.36-.43c1.48,1.19,2.19,2.68,3.51,4.54,4.54-3.17,9.71-4.01,15.13-2.93l2.76-8.72c-1.32-1.77-3.64-2.06-5.05-3.25-4.14-3.48-9.09-6.44-14.06-8.81-3.8-1.81-6.51-.95-9.41.6ZM317.6,222.75c-4.73,7.38-7.02,16.19-4.67,25.07.5,1.89,2.51,3.09,3.61,4.54,6.28-8.06,14.64-12.89,24.06-15.81,6.11-20.04-9.3-24.16-3.94-37.34l3.31-8.14c1.03-2.54,1.41-4.91.91-7.66-3.12,5.6-7.34,9.88-11.33,15.69-5.48,7.98-1.2,14.08-.02,21.99,1.07,7.18-3.07,15.1-8.2,13.71-3.64-.98-3.47-8.72-3.73-12.07ZM59.08,312.09c1.89,1.11,3.63,2.31,5.66,3.85,8.67-10.43,29.06-10.99,37.02,1.56,4.78-3.87,9.94-6.79,15.76-7.93,5.04-.99,10.57-.38,15.6.8,3.51.82,6.14,2.87,9.13,4.74,3.73-5.22,9.38-7.7,15.61-7.38,9.62.5,18.91-.05,28.32-2.27,2.61-.62,4.98-.83,7.89-.6,3.16-5.77,1.99-13.42-3.51-17.15.14,4.82.4,11.55-4.69,12.27-1.95.28-3.88-.48-4.62-2.52-1.7-4.69-3.22-9.23-5.14-13.72-1.36-3.17-1.88-6.29-2.27-9.85-5.25,8.33-.54,16.11-2.39,22.01-.62,1.99-1.95,3.45-3.57,3.7-6.12.96-7.52-8.99-5.62-14.84-3.43,2.21-5.04,5.79-6.17,9.46l-2.02,6.52c-.59,1.91-1.97,3.1-3.62,3.19-5.29.31-4.36-7.2-9.02-10.93-.62,3.23-.74,6.04-2.24,8.73-1.27,2.28-4.15,4.07-6.64,2.43-1.84-1.21-2-4.03-1.34-6.16,3.14-10.23,1.12-21.28-6.55-29.14.62,5.84,1.17,11.01-1.3,15.87-1.09,2.14-2.69,3.66-5.08,3.37-1.84-.23-3.67-1.84-4.24-4.25-1.45-6.14,4.46-15.77-1.42-23.64-1.16,4.48-2.65,10.91-8,10.39-1.92-.19-3.8-1.44-4.8-3.51-4.87-10.09,2.51-30.62-13.44-39.77,3.35,5,4.9,14.04,1.23,16.65-3.46,2.46-8.68-2.37-10.68-6.52-4.08-8.47-3.08-17.65,1.72-25.6,3.24-5.38,5.41-11.01,4.74-17.47-.83,2.85-2.49,5.35-4.49,7.78l-9.08,11.11c-8.92,10.92-8.16,24.88-.87,36.75,2.97,4.84,4.56,10.18,3.84,15.8s-4.82,11.36-9.89,9.51c-3.64-1.33-3.73-7.78-3.79-11.12-.17-9.68-7.15-14.22-15.77-16.17,7.77,7.15,12.11,16.35,6.5,26.54l-5.4,9.81c-4.62,8.4-4.07,18.28.49,26.68,4.93-.66,9.6-.32,14.13,1ZM296.85,217.94c-2.11.97-7.44,5.41-4.58,7.06,2.63,1.52,4.86-4.96,4.58-7.06ZM108.9,246.59c5.38-1.33,10.25-3.25,14.89-6.15l-2.19-8.81c-5.68.98-11.07,1.97-16.97.15.03,2.81-.67,16.04,4.28,14.82ZM373.27,281.35c-.48,7.54-3.12,13.53-5.84,20.05,10.07-13.3,16.77-31.93,6.91-47.55-6.76-10.7-19.17-15.56-31.55-13.21-10.44,1.98-19.11,8.08-25.55,16.36.38,1.37,1.16,2.62,2.19,3.72,5.68-4.46,11.05-8.21,17.94-10.23,8.75-2.56,18.31-1.66,25.41,4.22,7.72,6.39,11.15,16.39,10.49,26.64ZM373.82,346.94c5.38-1.42,8.78-5.84,9.42-11.23-4.35,2.52-8.77,4.14-13.63,3.39-7.5-1.16-12.55-6.84-12.83-14.35-.45-11.97,6.85-17.84,11.35-29.28,3.33-8.47,4.52-17.54,1.97-26.29-3.98-13.61-16.85-20.93-30.62-17.74-6.31,1.46-11.8,4.43-16.77,8.88,5.6-1.82,10.52-3.38,16.29-3.51,9.31-.21,17.6,4.58,21.57,13.02,3.25,6.89,3.39,14.54,1.1,21.81-3.97,12.64-17.6,25.89-14.09,39.74,2.9,11.44,14.84,18.57,26.23,15.56ZM159.34,263.73c-1.46-2.6-3.35-4.6-5.46-6.57-4.5,5.07-9.59,8.75-15.67,11.07,2.59,4.62,5.46,8.43,9.82,11.75,3.42-1.83,12.98-13.27,11.31-16.25ZM363.18,358.4c-18.16-8.78-23.21-29.09-14.21-45.48l9.05-16.48c4.1-7.47,4.85-16.03,1.76-23.97-6.15-15.8-22.1-16.71-35.61-10.62,4.51.6,8.44.97,12.23,2.84,7.44,3.67,11.36,11.33,10.79,19.84-.8,12.01-9.08,20.78-12.19,32.07-3.28,11.92-.86,24.5,7.62,33.42,5.37,5.65,12.51,9.22,20.56,8.39ZM326.5,311.42c-4.54,11.8-2.92,24.43,4.76,34.23-4.92-19.42-1.39-28.32,8.08-44.51,2.47-4.53,4.79-8.86,5.78-14,1.34-6.98-.62-14.09-5.86-18.56-5.02-4.29-12.74-6.39-19.31-3.19,4.41,1.53,8.37,2.11,11.94,4.73,5.19,3.81,7.42,9.63,6.17,15.96-1.91,9.62-7.99,16.08-11.55,25.34ZM241.99,302.14c-5.08-.99-9.44-3-14.81-4.65.58,2.84,1.56,4.87,2.55,7.41l12.26-2.76ZM212.56,310.28c-.15-3.57-1.89-6.59-4.17-9.09-1.51,2.89-1.96,9.03,1.63,10.36.69.26,2.61.33,2.54-1.28ZM250.31,363.72l-.15,11.8c-.04,3.53,1.26,7.06,4.67,8.4,4.32,1.69,9.32,1.41,13.74-.3,6.85-2.64,6.73-11.04,3.77-16.83-1.86-3.65-3.94-6.85-6.05-10.41-5.2-8.76-8.59-18.03-9.74-28.24-.89-7.87-2.73-15.61-12.54-15.45-4.11.06-8.4.38-11.61,3.25s-4.35,7.11-4.45,11.16c-.76,30.34-14.24,37.66-13.91,51.64.09,3.93,2.18,7.15,6.04,8.14s8.15.79,11.97-.46c4.4-1.43,6.56-5.35,6.14-9.86l-1.17-12.42c-.4-4.21,2.58-7.07,6.26-7.36,3.92-.3,7.09,2.61,7.04,6.92ZM169.97,390.59c3.62.5,7.22.16,10.82-.92,8.65-2.59,8.04-12.62,5.97-19.53l-4.74-15.88c-1.4-4.7-4.83-19.33.6-21.45,4.18-1.63,6.09,4.92,11.93,3.29,5.39-1.51,5.54-10.64,2.49-16.22-4.53-8.29-14.8-1.4-26.11-1.49l-14.09-.11c-4.1-.03-7.27,2.57-8.21,6.54-1.02,4.28-1.43,13.25,3.57,14.66,6.21,1.75,8.37-7.71,12.96-5.43,3.4,1.69,2.69,9.65,2.34,13.14-1.58,15.44-13.58,41.2,2.48,43.42ZM55.37,395.52c3.29-1.98,4.14-5.67,3.95-9.09-.49-9.12-7.88-18.32-6.35-29.42.18-1.33.88-2.44,1.94-2.93,3.45-1.59,6.9,6.43,7.99,8.95,2.89,6.69,4.32,13.53,6.05,20.66.94,3.87,2.46,7.57,5.92,9.75,3.65,2.3,7.96,2.08,11.98,1.33,5.39-1.01,8.61-5.1,8.61-10.56,0-9.99-9.87-22.73-3.49-45.77,1.87-6.74,4.83-14.83-2.93-18.5-3.72-1.76-7.93-1.65-11.57-.21-4.81,1.89-6.6,6.59-5.41,11.73,1.89,8.16,7.3,17.44,6.23,26.04-.17,1.32-.8,2.59-1.53,3.01-5.87,3.41-15.04-26.92-16.53-31.3-2.72-8.05-10.25-9.06-17.11-6.85-5.69,1.84-8.61,7.41-6.91,13.31l3.79,13.2c4.11,14.29-4.84,30.28-5.1,38.64-.14,4.66,2.39,8.42,6.87,9.59s9.33.99,13.59-1.58ZM106.63,387.26c8.69,7.95,22.18,8.49,31.4,1.44,4.69-3.59,7.58-8.59,9.27-14.41,4.22-14.53,2.43-30.36-4.79-43.28-6.7-11.99-22.17-15.37-32.75-6.79-14.22,11.53-18.44,49.02-3.13,63.04ZM282.68,338.4c-6.07-1.39-10.61-3.53-16.12-6.38,1.73,7.42,4,14.33,8.35,20.41,3-4.99,5.55-9.14,7.77-14.02ZM319.05,385.11c4.99.36,8.99-2.37,10.42-6.31,1.54-4.25.25-8.82-3.34-11.43-3.35-2.44-7.97-2.67-11.64-.1s-4.97,6.5-3.98,10.68c.83,3.52,4.03,6.84,8.54,7.16ZM303.7,371.51c-6.93,1.85-13.44,1.55-19.82-1.71-1.28,4.32-2.39,8.28-1.88,12.48,6.02,2.28,12.42,1.58,18.42-.01,4.58-1.22,3.27-6.08,3.28-10.76ZM359.06,437.58c-4.47-2.22-4.27-9.42-.66-11.89,5.88-4.02,13.3,2.63,16.13-2.23,1.66-2.85,1.51-6.77-.23-9.48-2.23-3.47-7.9.24-12.88.73-3.66.36-6.2-1.83-6.58-5.32-.48-4.39,2.17-7.58,6.55-8.13,6.98-.88,11.76,3.9,16.1-.02,2.85-2.58,2.3-9-.1-11.5-1.38-1.45-3.47-1.98-5.69-1.83l-26.15,1.74c-2.91.19-5.96,1.14-7.22,3.93-3.91,8.67,5.2,13.17,3.83,32.75-.83,11.84-5.37,20.63-3.99,28.5.73,4.17,3.88,7.64,8.55,8.07,8.68.8,17.5.14,25.88-1.85,4.14-.98,8.42-3.11,10.41-7.16,2.59-5.28,2.23-12.48-1.14-17.4-4.05-5.93-13.33,5.84-22.83,1.11ZM327.9,463.54c9.92-3.18,7.06-14.49,4.7-21.44-3.94-11.64-7.32-24.73-3.17-36.45,1.71-4.85,3.39-13.1-3.56-14.76-3.79-.91-7.79-.73-11.45.55-6.21,2.18-5.02,9.88-3.04,14.52,8.46,19.85-3.71,36.16-1.89,49.75.63,4.72,4.03,8.02,8.78,8.67,3.14.43,6.37.21,9.62-.83ZM289.49,465.46c4.19-2.03,6.23-5.82,6.16-10.29-.16-10-7.11-21.6-8.32-36.51-.23-2.9-.55-6.22,1.01-8.76s4.95-1.45,6.83.14,3.74,2.68,6.34,1.96c5.59-1.55,5.2-10.35,4.06-15.14-.83-3.5-4-5.25-7.59-4.86-11.47,1.24-22.7,2.04-34.27,2.01-5.11-.02-8.56,3.4-8.47,8.26.07,3.73.38,11.49,4.96,12.5,6.04,1.33,7.7-7.24,12.41-4.81,1.33.68,1.82,2.2,1.97,3.82,1.54,15.8-5.98,28.45-6.44,41.91-.2,5.73,2.78,10.27,8.3,11.35,4.24.83,8.77.51,13.05-1.57ZM235.25,445.72c-4.52-.27-7.07-3.2-6.8-7.45.21-3.28,2.07-5.65,5.37-6.31,6.29-1.26,12.27,3.61,14.29-2.3.83-2.44.95-5.62-.71-7.84-2.77-3.71-8.36.33-14.23.46-3.89.08-6.15-2.64-6.11-6.37.04-3.53,1.86-6.38,5.57-6.99,6.8-1.11,13.04,3.55,17.11-1.11,1.4-1.61,1.82-4.02,1.64-6.65-.22-3.11-2.21-6.12-5.74-5.86l-27.76,2.02c-2.97.22-5.97,1.7-7.02,4.4-3.18,8.15,5.83,14.33,4.08,34.4-.83,9.53-4.43,18.89-3.61,25.64.54,4.45,3.58,7.84,8.3,8.22,9.44.76,19.06-.51,28.2-3.38,3.51-1.1,6.69-3.29,7.87-6.62,1.82-5.13,1.44-15.4-3.02-17.63-4.14-2.07-9.13,3.88-17.43,3.38ZM187.05,449.6c-4.35-.16-6.68-3.04-6.68-6.94s2.08-6.48,5.82-7.1c5.81-.96,9.67,2.53,13.03-.81,2.45-2.43,2.16-9.75-1.53-11.11-4.33-1.6-11.08,3.59-15.86,1-3.03-1.64-3.26-5.55-2.21-8.44s3.86-4.25,7.15-4.37c5.73-.22,10.87,3.97,15.38-.42,2.82-2.75,2.31-9.26.09-11.3-1.28-1.18-3.17-1.67-5.16-1.52l-27.74,2.16c-4.9.38-8.03,3.78-7.73,8.68.16,2.7,1.04,5.25,2.01,7.73,8.64,22.01-1.94,34.31-.6,47.49.51,4.98,4.18,8.92,9.64,9.32,7.89.58,31.52-.62,34.91-9.47,1.89-4.94,1.28-10.42-.51-15.23-1.23-3.31-4.65-4.34-7.72-2.97-3.85,1.71-7.6,3.49-12.3,3.32ZM76.59,414.51c.52,3.87,1.81,6.97,3.43,10.02,5.76,10.84,8.22,22.67,7.26,35.03-.66,8.57-.03,19.11,10.41,20.5,4.29.57,8.89.08,12.69-2.55,6.72-4.65,5.44-14.37,5.7-21.08.09-2.28.17-11.73,3.3-11.96,4.78-.36,6.15,18.07,6.79,22.2.51,3.28,1.72,6.63,4.38,8.68,3.29,2.53,7.54,2.39,11.42,1.73,11.87-2.02,12.32-12.86,11.13-22.43-3.34-26.84,6.81-37.14,5.18-47.95-1.09-7.23-9.62-7.38-14.64-6-8.5,2.34-7.87,11.56-5.53,18.49s4.61,17.61,1.36,24.19c-.68,1.37-1.9,2.22-3.2,2.31s-2.6-.7-3.58-1.93c-6.28-7.83-5.21-23.72-4.95-33.27.09-3.21-1.35-6.22-4.27-7.53-2.68-1.2-5.45-1.01-8.2-.52-9.32,1.64-7.03,11.34-6.19,17.84.91,7.05,1.54,19.9-2.41,25.75-1.02,1.51-2.47,2.32-4.09,2.08-5.66-.84-5.91-14.99-5.17-19.66l2.18-13.58c.71-4.45-1.66-9.01-6.21-10.25-3.82-1.04-7.79-.64-11.23.61-3.76,1.37-6.16,4.78-5.56,9.27ZM66.41,481.27c10.25-4.33,15.4-14.7,12.98-25.57-1.77-7.92-7.34-13.72-14.49-17.34-5.97-3.02-21.08-7.97-17.72-16.91,1.15-3.05,4.47-3.59,7.15-3.22,2.53.35,4.01,2.5,5.22,4.89,1.68,3.31,5.32,5.11,8.94,4.15,3.38-.9,5.07-4.28,5.12-8.07.09-6.53-3.77-11.45-10.09-12.81-11.97-2.59-29.98.95-31.46,16.34-.65,6.68,2.33,12.67,8.03,16.57,7.39,5.07,19.5,7.79,17.01,16.14-.49,1.66-1.87,3.43-4.05,4.06-4.24,1.23-8.41-.68-10.96-4.24-1.33-1.85-2.82-3.45-4.9-3.6-1.93-.14-4.26.38-5.87,2.16-5.68,6.27-6.06,16.36-.56,23.1,7.63,9.36,25.11,8.8,35.65,4.35Z"/>
    <path class="cls-25" d="M147.19,38.01c-2.22.78,4.32,16.36,5.17,19.74-40.47,14.62-72.29,46.69-89.98,85.84-10.08,22.31-14.02,46.26-13.17,70.52.47,13.28,2.81,25.74,7.33,38.51-5.19-3.79-10.14-6.64-16.59-6.66,7.44,9.96,7.75,21,.99,31.81-20.01-43.01-20.41-93.25-3.04-136.92,14.35-36.08,39.87-66.76,72.32-87.9s71.19-30.27,109.74-26.9c14.69,1.28,28.2,3.99,42.15,8.89,26.53,9.31,49.79,24.68,69.43,44.59,16,16.23,28.7,35.25,37.93,56.1,10.57,23.9,15.44,49.41,14.38,75.63-.56,12.78-2.49,24.81-6.12,37.23-5.47-6.29-12.63-10.3-20.98-12.38,5.1-23.01,4.53-46.53-1.59-69.62-11.25-41.89-39.22-77.75-76.89-99.08-35.98-20.38-76.34-23.5-115.89-13.47-2.28-2.54-13.17-16.63-15.2-15.92Z"/>
    <path class="cls-42" d="M311.03,131.21c-17.7-26.55-47.43-48.23-78.7-55.44-2.55-3.31-4.69-6.86-8.58-8.41l-1.58,6.43c-1.5-.07-4.1.4-5.23-.71-2.48-3.06-4.43-6.67-8.16-8.36-1.39,2.26-1.79,6.15-4.38,7.6-1.94,1.08-5.11-.2-7.31.51-1.1-2.53-12.86-12.65-13.2-7.25l-.54,8.68c-1.83.44-3.47.33-5.35.55l-14.21-18.95c21.7-6.65,50.23-7,72.08-2.39,28.62,6.04,54.21,20.43,74.92,40.88,37.24,36.8,55.44,89.29,44.36,141.31-4.05-.2-7.65-.12-11.78.23,2.07-7.76,1.07-15.48-2.92-22.22-2.06-3.48-1.9-6.86-.32-10.63,2.64-6.31,4.68-12.7,4.27-19.53-.57-5.3-2.07-10.71-7.32-13.32,4.04,7.23,2.43,14.68-3.73,19.2-3.12-21.19-10.66-40.69-22.32-58.17Z"/>
    <path class="cls-7" d="M57.07,236.42c1.59,13.8,9.96,20.3,9.14,31.09-.14,1.77-.75,4.91-2.85,5.15-1.43-.58-1.8-3.64-1.86-5.11-.4-11.27-6.11-20.07-8.39-33.98-3.4-20.79-3.08-42.05,1.99-62.66,9.86-40.12,34.9-74.68,69.19-97.29,9.26-5.66,18.33-10.53,28.68-14.04l7.92,21.26c-24.93,9.85-46.05,26.79-61.27,48.75-15.01,21.63-23.81,46.94-24.95,73.22-11.62,8.51-19.38,18.23-17.61,33.62Z"/>
    <path class="cls-58" d="M117.52,309.57c1.88-4.15,4.09-8.19,3.55-13.16-.05-.45-.23-1.4-.6-1.32-.31.06-.97.6-1.21.92-2.35,3.06-6.14,3.74-9.17,1.13-5.04-4.34-2.54-11.79-4.86-18.29-1.38,4.45-4.05,11.11-9.72,9.2-3.88-1.31-4.42-9.11-4.88-12.92-1.03-8.48-4.55-16.48-11.65-22.07,3.87,10.47,6.13,28.78-.67,37.46-3.65,4.66-8.17-4.14-9.83-6.75-1.72,2.84,3.47,16.59-1.8,18.37-6.63,2.24-12.24-8.68-12.17-15.77-3.13,7.51-1.11,15.57,3.07,22.4.71,1.15,1.55,2.19,1.5,3.34-4.54-1.31-9.2-1.66-14.13-1-4.56-8.4-5.12-18.28-.49-26.68l5.4-9.81c5.6-10.18,1.27-19.38-6.5-26.54,8.62,1.95,15.59,6.49,15.77,16.17.06,3.34.15,9.79,3.79,11.12,5.07,1.85,9.15-3.67,9.89-9.51s-.87-10.96-3.84-15.8c-7.29-11.88-8.06-25.83.87-36.75l9.08-11.11c1.99-2.44,3.66-4.93,4.49-7.78.67,6.46-1.5,12.09-4.74,17.47-4.79,7.96-5.8,17.13-1.72,25.6,2,4.14,7.21,8.98,10.68,6.52,3.68-2.61,2.13-11.65-1.23-16.65,15.95,9.15,8.57,29.68,13.44,39.77,1,2.08,2.88,3.32,4.8,3.51,5.35.52,6.84-5.91,8-10.39,5.87,7.88-.04,17.5,1.42,23.64.57,2.41,2.4,4.02,4.24,4.25,2.39.29,3.99-1.23,5.08-3.37,2.47-4.85,1.92-10.02,1.3-15.87,7.68,7.85,9.69,18.9,6.55,29.14-.65,2.13-.5,4.95,1.34,6.16,2.49,1.64,5.37-.15,6.64-2.43,1.49-2.69,1.62-5.5,2.24-8.73,4.66,3.73,3.73,11.24,9.02,10.93,1.65-.1,3.03-1.29,3.62-3.19l2.02-6.52c1.14-3.67,2.74-7.25,6.17-9.46-1.9,5.85-.51,15.8,5.62,14.84,1.63-.25,2.95-1.71,3.57-3.7,1.85-5.9-2.86-13.68,2.39-22.01.39,3.57.91,6.68,2.27,9.85,1.92,4.49,3.44,9.03,5.14,13.72.74,2.04,2.67,2.8,4.62,2.52,5.08-.72,4.83-7.45,4.69-12.27,5.5,3.73,6.67,11.37,3.51,17.15-2.92-.23-5.28-.02-7.89.6-9.41,2.22-18.7,2.77-28.32,2.27-6.23-.32-11.88,2.16-15.61,7.38-2.99-1.87-5.62-3.91-9.13-4.74-5.03-1.18-10.56-1.79-15.6-.8Z"/>
    <path class="cls-39" d="M98.79,240.19c-2.72-6.95-7.05-12.96-15.01-15.32,1.87,4.88,4.02,9.48,2.94,14.76-.17.86-.31,1.76-.77,2.03-3.74,2.12-14.86-11.48-4.88-29.4,4.54-8.15,5.47-17.38,2.69-26.28-1.23,5.98-2.59,11.25-7.26,14.92,3.5-51.76,36.4-99.34,85-118.21l4.25,9.99c-7.77,2.2-14.96-4.27-14.73-4.29-3.7.33-2.6,15.9,6.65,20.59-2.27,2.26-4.89,3.79-7.64,5.73-19.7,13.89-34.92,33.15-43.04,56.12-5.82,16.45-5.06,33.22-6.53,50.25l-1.66,19.11Z"/>
    <path class="cls-73" d="M302.07,238.21c8.75-21.13,7.46-47.49.06-68.26-6.93-19.45-19.17-36.22-34.9-49.54l.52-6.11c-1.74.48-2.81,1.54-4.7,2.35-3.73-2.72-7.47-4.59-11.39-6.77,3.8-7.94,3.72-16.8-.43-24.59-2.33,3.35-3.87,6.42-6.99,8.32-3.61,2.42-8.14,2.84-11.98.33,2.26-5.14,2.65-10.42.92-15.86,17.41,4.27,32.99,12.49,47.07,23.35,17.97,13.86,31.8,31.65,40.85,52.54,5.3,12.23,9.17,24.43,10.34,37.55-17.83,18.27-3.23,26.99-8.89,38.33-3.07,6.14-3.53-11.61-3.34-12.56-7.46,5.92-12.23,14.04-12.52,23.99-1.91-.52-2.69-1.55-4.61-3.07Z"/>
    <path class="cls-61" d="M55.37,395.52c-4.26,2.57-9.29,2.7-13.59,1.58s-7.01-4.92-6.87-9.59c.26-8.36,9.2-24.35,5.1-38.64l-3.79-13.2c-1.7-5.9,1.22-11.47,6.91-13.31,6.86-2.21,14.39-1.2,17.11,6.85,1.48,4.38,10.65,34.72,16.53,31.3.73-.42,1.36-1.69,1.53-3.01,1.07-8.59-4.34-17.88-6.23-26.04-1.19-5.14.6-9.84,5.41-11.73,3.64-1.43,7.85-1.55,11.57.21,7.76,3.67,4.8,11.76,2.93,18.5-6.38,23.04,3.5,35.78,3.49,45.77,0,5.46-3.22,9.55-8.61,10.56-4.03.75-8.33.97-11.98-1.33-3.46-2.17-4.97-5.87-5.92-9.75-1.73-7.13-3.16-13.97-6.05-20.66-1.09-2.52-4.54-10.54-7.99-8.95-1.06.49-1.76,1.59-1.94,2.93-1.53,11.1,5.86,20.3,6.35,29.42.18,3.42-.66,7.11-3.95,9.09Z"/>
    <path class="cls-20" d="M106.63,387.26c-15.31-14.02-11.09-51.51,3.13-63.04,10.58-8.58,26.04-5.2,32.75,6.79,7.22,12.92,9.02,28.75,4.79,43.28-1.69,5.81-4.58,10.82-9.27,14.41-9.22,7.05-22.71,6.51-31.4-1.44ZM129.41,336.33c-1.54-3.1-4.39-4.78-7.32-4.68s-5.58,1.96-6.78,5.23c-4.17,11.43-1.15,29.45,8.37,28.77,8.93-.64,10.76-19.17,5.72-29.32Z"/>
    <path class="cls-74" d="M169.97,390.59c-16.06-2.21-4.05-27.97-2.48-43.42.36-3.49,1.06-11.45-2.34-13.14-4.59-2.28-6.75,7.18-12.96,5.43-5-1.41-4.59-10.38-3.57-14.66.94-3.96,4.12-6.57,8.21-6.54l14.09.11c11.31.09,21.58-6.8,26.11,1.49,3.06,5.59,2.9,14.72-2.49,16.22-5.83,1.63-7.74-4.92-11.93-3.29-5.43,2.12-2,16.75-.6,21.45l4.74,15.88c2.07,6.92,2.67,16.95-5.97,19.53-3.6,1.08-7.21,1.42-10.82.92Z"/>
    <path class="cls-47" d="M117.52,309.57c-5.81,1.14-10.98,4.06-15.76,7.93-7.96-12.55-28.35-11.99-37.02-1.56-2.04-1.55-3.77-2.74-5.66-3.85.06-1.15-.79-2.19-1.5-3.34-4.18-6.83-6.2-14.89-3.07-22.4-.07,7.09,5.55,18.02,12.17,15.77,5.27-1.78.07-15.53,1.8-18.37,1.66,2.61,6.18,11.41,9.83,6.75,6.8-8.68,4.54-26.99.67-37.46,7.1,5.58,10.62,13.59,11.65,22.07.46,3.81,1,11.61,4.88,12.92,5.67,1.91,8.34-4.74,9.72-9.2,2.31,6.5-.18,13.96,4.86,18.29,3.03,2.61,6.83,1.94,9.17-1.13.25-.32.9-.86,1.21-.92.37-.07.55.87.6,1.32.54,4.97-1.66,9.02-3.55,13.16Z"/>
    <path class="cls-18" d="M363.18,358.4c-8.04.83-15.18-2.74-20.56-8.39-8.48-8.92-10.9-21.5-7.62-33.42,3.1-11.29,11.39-20.06,12.19-32.07.56-8.51-3.35-16.16-10.79-19.84-3.79-1.87-7.72-2.24-12.23-2.84,13.5-6.09,29.46-5.18,35.61,10.62,3.09,7.94,2.34,16.49-1.76,23.97l-9.05,16.48c-9,16.39-3.94,36.7,14.21,45.48Z"/>
    <path class="cls-2" d="M373.82,346.94c-11.39,3.01-23.33-4.12-26.23-15.56-3.51-13.85,10.12-27.1,14.09-39.74,2.28-7.27,2.14-14.92-1.1-21.81-3.98-8.44-12.26-13.23-21.57-13.02-5.77.13-10.7,1.69-16.29,3.51,4.96-4.46,10.46-7.42,16.77-8.88,13.77-3.19,26.64,4.13,30.62,17.74,2.56,8.75,1.36,17.82-1.97,26.29-4.5,11.44-11.8,17.31-11.35,29.28.28,7.51,5.33,13.19,12.83,14.35,4.86.75,9.28-.87,13.63-3.39-.64,5.39-4.04,9.8-9.42,11.23Z"/>
    <path class="cls-65" d="M317.6,222.75c.26,3.34.09,11.08,3.73,12.07,5.13,1.39,9.27-6.53,8.2-13.71-1.18-7.91-5.47-14.01.02-21.99,3.99-5.81,8.21-10.08,11.33-15.69.51,2.75.13,5.11-.91,7.66l-3.31,8.14c-5.36,13.18,10.06,17.3,3.94,37.34-9.42,2.92-17.79,7.75-24.06,15.81-1.1-1.45-3.11-2.65-3.61-4.54-2.35-8.88-.07-17.7,4.67-25.07Z"/>
    <path class="cls-49" d="M373.27,281.35c.66-10.25-2.78-20.25-10.49-26.64-7.1-5.88-16.66-6.79-25.41-4.22-6.89,2.02-12.26,5.77-17.94,10.23-1.03-1.09-1.81-2.34-2.19-3.72,6.45-8.28,15.12-14.38,25.55-16.36,12.37-2.35,24.79,2.51,31.55,13.21,9.86,15.61,3.16,34.25-6.91,47.55,2.72-6.52,5.36-12.51,5.84-20.05Z"/>
    <path class="cls-69" d="M259.2,153.91c4.88,4.59,11.45,3.24,18.17.18-3.47,9.19-15.07,13.48-23.99,8.77-5.24-2.77-9.48-6.21-13.65-9.94-.36-7.18-1.08-13.78-2.79-20.92,4.16,1.5,7.76,2.31,12.38,2.08,1.54,4.72,5.18,8.27,9.25,9.66,5.35,1.82,10.61,1.06,14.78-2.79-1.31,6.9-6.92,12.16-14.14,12.95Z"/>
    <path class="cls-14" d="M284.05,213.42c-1.62.86-2.92,5.2-5.92,4.82-6.81-.87-5.84-14.85-1.71-19.09l.96,5.9c.26,1.61,1.63,2.82,3.16,3.2,4.36,1.08,7.16-4.13,7.62-9,.85-9.07-8.3-18.92,2.33-33.47-.11,14.07,4.87,18.01,7.42,30.2,2.05,16.09-8.81,14.37-12.12,28.03-5.09-1.78-1.6-7.02-1.74-10.58Z"/>
    <path class="cls-38" d="M326.5,311.42c3.56-9.26,9.64-15.72,11.55-25.34,1.26-6.33-.98-12.15-6.17-15.96-3.57-2.62-7.53-3.2-11.94-4.73,6.58-3.2,14.3-1.1,19.31,3.19,5.24,4.48,7.2,11.58,5.86,18.56-.99,5.14-3.31,9.47-5.78,14-9.47,16.19-13.01,25.09-8.08,44.51-7.67-9.8-9.3-22.43-4.76-34.23Z"/>
    <path class="cls-28" d="M231.53,116.54c-2.84-5.52-5.65-10.23-9.71-14.73,2.87-1.65,5.21-3.46,7.65-6.48,7.41,4.73,16.67,3.18,21.45-4.94,1.27,4.05.88,8.25-.28,12.28-2.42,8.44-9.96,12.56-19.11,13.87Z"/>
    <path class="cls-51" d="M272.84,176.69c-4.32,6.62-12.36,8.26-19.01,5.02-6.02-2.93-10.61-7.36-14.4-12.89l.71-12.83c5.12,4.06,9.65,7.81,15.49,10.57,2.25,7.59,9.24,10.97,17.21,10.13Z"/>
    <path class="cls-19" d="M265.63,118.2c-.95,6.99-6.34,11.87-12.88,13.32-5.62,1.25-11.36.34-16.47-1.85-1.16-4.12-2.34-7.42-3.89-11.37,3.94-.57,7.4-1.44,11.07-3.25,6.27,7.56,13.8,6.34,22.16,3.15Z"/>
    <g>
      <path class="cls-71" d="M76.59,414.51c-.6-4.5,1.79-7.91,5.56-9.27,3.44-1.25,7.41-1.66,11.23-.61,4.55,1.24,6.92,5.8,6.21,10.25l-2.18,13.58c-.75,4.67-.49,18.82,5.17,19.66,1.62.24,3.07-.57,4.09-2.08,3.95-5.85,3.32-18.7,2.41-25.75-.84-6.51-3.13-16.2,6.19-17.84,2.75-.48,5.52-.68,8.2.52,2.92,1.31,4.36,4.32,4.27,7.53-.26,9.54-1.33,25.44,4.95,33.27.98,1.22,2.26,2.01,3.58,1.93s2.52-.94,3.2-2.31c3.25-6.57.99-17.24-1.36-24.19s-2.97-16.14,5.53-18.49c5.02-1.39,13.55-1.24,14.64,6,1.63,10.81-8.53,21.11-5.18,47.95,1.19,9.56.75,20.41-11.13,22.43-3.88.66-8.13.8-11.42-1.73-2.66-2.04-3.87-5.39-4.38-8.68-.64-4.13-2-22.56-6.79-22.2-3.13.23-3.21,9.69-3.3,11.96-.26,6.7,1.02,16.42-5.7,21.08-3.8,2.63-8.4,3.12-12.69,2.55-10.44-1.39-11.07-11.93-10.41-20.5.96-12.37-1.5-24.19-7.26-35.03-1.62-3.04-2.91-6.15-3.43-10.02Z"/>
      <path class="cls-69" d="M66.41,481.27c-10.54,4.45-28.02,5.01-35.65-4.35-5.5-6.74-5.12-16.83.56-23.1,1.61-1.78,3.93-2.3,5.87-2.16,2.08.15,3.57,1.75,4.9,3.6,2.56,3.55,6.72,5.47,10.96,4.24,2.19-.63,3.56-2.41,4.05-4.06,2.49-8.35-9.62-11.07-17.01-16.14-5.7-3.9-8.68-9.89-8.03-16.57,1.49-15.38,19.49-18.92,31.46-16.34,6.32,1.37,10.18,6.28,10.09,12.81-.05,3.79-1.74,7.18-5.12,8.07-3.62.96-7.26-.84-8.94-4.15-1.21-2.39-2.69-4.53-5.22-4.89-2.69-.38-6.01.17-7.15,3.22-3.36,8.94,11.75,13.89,17.72,16.91,7.15,3.62,12.72,9.42,14.49,17.34,2.43,10.87-2.72,21.24-12.98,25.57Z"/>
      <path class="cls-71" d="M359.06,437.58c9.5,4.73,18.78-7.04,22.83-1.11,3.37,4.92,3.73,12.12,1.14,17.4-1.99,4.05-6.27,6.18-10.41,7.16-8.38,1.99-17.2,2.65-25.88,1.85-4.67-.43-7.82-3.9-8.55-8.07-1.38-7.86,3.16-16.66,3.99-28.5,1.37-19.58-7.75-24.07-3.83-32.75,1.26-2.78,4.31-3.73,7.22-3.93l26.15-1.74c2.21-.15,4.3.39,5.69,1.83,2.4,2.51,2.95,8.92.1,11.5-4.34,3.92-9.12-.86-16.1.02-4.38.55-7.02,3.74-6.55,8.13.38,3.49,2.92,5.68,6.58,5.32,4.98-.48,10.65-4.2,12.88-.73,1.74,2.71,1.9,6.63.23,9.48-2.83,4.86-10.25-1.8-16.13,2.23-3.61,2.47-3.81,9.67.66,11.89Z"/>
      <path class="cls-32" d="M187.05,449.6c4.7.18,8.45-1.61,12.3-3.32,3.08-1.37,6.49-.34,7.72,2.97,1.79,4.81,2.4,10.29.51,15.23-3.39,8.85-27.02,10.05-34.91,9.47-5.47-.4-9.13-4.33-9.64-9.32-1.35-13.18,9.23-25.48.6-47.49-.97-2.47-1.85-5.03-2.01-7.73-.3-4.9,2.83-8.3,7.73-8.68l27.74-2.16c1.99-.16,3.88.34,5.16,1.52,2.22,2.04,2.73,8.55-.09,11.3-4.5,4.39-9.65.21-15.38.42-3.29.12-6.13,1.57-7.15,4.37s-.82,6.8,2.21,8.44c4.78,2.59,11.54-2.6,15.86-1,3.69,1.36,3.98,8.69,1.53,11.11-3.37,3.33-7.22-.15-13.03.81-3.74.62-5.82,3.39-5.82,7.1,0,3.91,2.33,6.78,6.68,6.94Z"/>
      <path class="cls-71" d="M235.25,445.72c8.3.5,13.29-5.45,17.43-3.38,4.46,2.23,4.84,12.5,3.02,17.63-1.18,3.33-4.36,5.52-7.87,6.62-9.14,2.87-18.77,4.15-28.2,3.38-4.72-.38-7.76-3.77-8.3-8.22-.82-6.75,2.77-16.11,3.61-25.64,1.75-20.08-7.26-26.25-4.08-34.4,1.05-2.7,4.05-4.18,7.02-4.4l27.76-2.02c3.53-.26,5.52,2.75,5.74,5.86.18,2.63-.23,5.05-1.64,6.65-4.07,4.66-10.31,0-17.11,1.11-3.71.61-5.53,3.46-5.57,6.99-.04,3.73,2.22,6.46,6.11,6.37,5.87-.13,11.46-4.17,14.23-.46,1.66,2.22,1.54,5.4.71,7.84-2.02,5.9-8,1.04-14.29,2.3-3.3.66-5.16,3.03-5.37,6.31-.27,4.26,2.28,7.18,6.8,7.45Z"/>
      <path class="cls-32" d="M289.49,465.46c-4.28,2.08-8.81,2.4-13.05,1.57-5.51-1.08-8.49-5.62-8.3-11.35.46-13.46,7.99-26.11,6.44-41.91-.16-1.61-.65-3.13-1.97-3.82-4.71-2.43-6.36,6.14-12.41,4.81-4.58-1.01-4.89-8.77-4.96-12.5-.09-4.86,3.36-8.28,8.47-8.26,11.57.04,22.8-.77,34.27-2.01,3.59-.39,6.75,1.36,7.59,4.86,1.14,4.79,1.53,13.59-4.06,15.14-2.6.72-4.48-.39-6.34-1.96s-5.25-2.73-6.83-.14-1.24,5.86-1.01,8.76c1.21,14.91,8.16,26.51,8.32,36.51.07,4.47-1.97,8.26-6.16,10.29Z"/>
      <path class="cls-40" d="M327.9,463.54c-3.25,1.04-6.48,1.27-9.62.83-4.75-.65-8.15-3.95-8.78-8.67-1.82-13.58,10.35-29.9,1.89-49.75-1.98-4.63-3.17-12.34,3.04-14.52,3.66-1.28,7.66-1.46,11.45-.55,6.94,1.66,5.27,9.91,3.56,14.76-4.15,11.73-.77,24.82,3.17,36.45,2.35,6.95,5.22,18.26-4.7,21.44Z"/>
      <path class="cls-11" d="M319.05,385.11c-4.51-.33-7.71-3.64-8.54-7.16-.98-4.18.46-8.2,3.98-10.68s8.28-2.34,11.64.1c3.6,2.61,4.88,7.18,3.34,11.43-1.43,3.95-5.43,6.67-10.42,6.31Z"/>
    </g>
    <path class="cls-64" d="M249.16,196c-3.6-4.3-7.27-8.35-8.82-14.2-.1-.38-.78-.69-.86-.62-.08-2.97-.54-5.76-.05-9.23,3.1,4.85,7.6,7.76,11.77,11.44,5.54,4.88,11.84,7.6,19.68,6.39-4.67,7.75-14.79,8.42-21.72,6.22Z"/>
    <path class="cls-5" d="M159.34,263.73c1.67,2.98-7.89,14.42-11.31,16.25-4.36-3.32-7.23-7.13-9.82-11.75,6.09-2.32,11.18-6,15.67-11.07,2.11,1.97,4,3.97,5.46,6.57Z"/>
    <path class="cls-67" d="M303.7,371.51c0,4.67,1.3,9.54-3.28,10.76-6,1.6-12.4,2.29-18.42.01-.51-4.19.61-8.15,1.88-12.48,6.38,3.25,12.89,3.55,19.82,1.71Z"/>
    <path class="cls-71" d="M108.9,246.59c-4.94,1.22-4.25-12.01-4.28-14.82,5.9,1.82,11.29.83,16.97-.15l2.19,8.81c-4.64,2.9-9.51,4.82-14.89,6.15Z"/>
    <path class="cls-17" d="M249.16,196c1.88,5.43,8.64,7.79,14.25,8.98-4.82,3.26-11.18,2.93-15.66-.11-6.78-4.6-8.09-16.48-8.27-23.69.08-.07.76.24.86.62,1.55,5.84,5.22,9.89,8.82,14.2Z"/>
    <path class="cls-12" d="M282.68,338.4c-2.22,4.88-4.77,9.03-7.77,14.02-4.35-6.07-6.62-12.99-8.35-20.41,5.51,2.85,10.05,4.99,16.12,6.38Z"/>
    <path class="cls-8" d="M128.36,165c-2.42-3.96,1.22-12.03.68-17.01,3.55,3.62,9.43,16.54,4.02,18.61-1.5.57-3.55.28-4.7-1.6Z"/>
    <path class="cls-35" d="M148.62,178.18c-2.8-2.61-.57-11.49.02-15.62,2.26,3.78,8.76,12.12,4.64,15.51-.95.78-3.09,1.57-4.66.1Z"/>
    <path class="cls-53" d="M241.99,302.14l-12.26,2.76c-.99-2.53-1.97-4.56-2.55-7.41,5.37,1.65,9.73,3.66,14.81,4.65Z"/>
    <path class="cls-68" d="M212.56,310.28c.07,1.61-1.85,1.53-2.54,1.28-3.59-1.34-3.15-7.48-1.63-10.36,2.28,2.5,4.02,5.52,4.17,9.09Z"/>
    <path class="cls-60" d="M121.78,172.12c1.03,1.75.34,3.18-1.28,3.86-1.04.43-2.74.08-2.99-1.81-.36-2.63-.14-5.2.85-7.83l3.42,5.78Z"/>
    <path class="cls-48" d="M296.85,217.94c.28,2.1-1.95,8.57-4.58,7.06-2.86-1.65,2.47-6.09,4.58-7.06Z"/>
    <path class="cls-33" d="M219.73,77.97c-.43-.45-1.02-1.34-.8-2.04.19-.62,1.11-.16,1.51-.09.49.09.94.78.49,1.26-.32.34-.65,1.44-1.19.87Z"/>
    <path class="cls-27" d="M129.41,336.33c5.04,10.15,3.21,28.68-5.72,29.32-9.52.68-12.54-17.34-8.37-28.77,1.19-3.26,3.91-5.13,6.78-5.23s5.78,1.58,7.32,4.68Z"/>
    <g>
      <path class="cls-59" d="M250.31,363.72c.05-4.31-3.11-7.22-7.04-6.92-3.68.28-6.66,3.15-6.26,7.36l1.17,12.42c.43,4.51-1.74,8.42-6.14,9.86-3.81,1.24-7.94,1.49-11.97.46s-5.95-4.21-6.04-8.14c-.33-13.98,13.15-21.3,13.91-51.64.1-4.05,1.39-8.43,4.45-11.16,3.22-2.88,7.5-3.19,11.61-3.25,9.81-.15,11.65,7.58,12.54,15.45,1.15,10.2,4.54,19.48,9.74,28.24,2.11,3.56,4.19,6.76,6.05,10.41,2.96,5.79,3.08,14.19-3.77,16.83-4.42,1.71-9.43,1.99-13.74.3-3.41-1.34-4.71-4.87-4.67-8.4l.15-11.8ZM247.85,343.58c.52-4.61-.84-14.8-5.7-14.56s-5.17,10.44-5.03,14.31c.12,3.16,2.24,5.25,5.03,5.42s5.3-1.63,5.69-5.17Z"/>
      <path class="cls-13" d="M247.85,343.58c-.4,3.55-2.77,5.35-5.69,5.17s-4.92-2.26-5.03-5.42c-.14-3.87.16-14.07,5.03-14.31s6.22,9.95,5.7,14.56Z"/>
    </g>
    <g>
      <path class="cls-63" d="M290.53,369.76c-1.82-3.59-2.8-7.66-.73-11.76l9.26-18.38c1.96-3.9.62-7.68-3.2-9.5-4.71-2.24-8.99-4.61-13.46-7.25-15.62-9.22-23.28-27.62-19.15-45.46.33-1.41.67-2.35-.12-3.3,1.49-2.94,2.48-6.48,4.83-9.16-3.88.74-4.29,5.18-7.06,6.35-3.44,1.46-4.85,5.75-8.2,7.51-3.67,1.82-9.36.6-13.36-.11-10.95-1.94-20.99-6.47-29.99-13.01-2.21-1.61-11.73-9.55-9.49-12.33,3.28-4.08,6.06-8.21,8.05-13.26.09-.41-1.11-.47-1-.79.1-.29.02-.59,0-.82,1.42-2.29,2.62-6.83,3.36-9.15.2-.62,1.51-1.81-.32-2.69-6.56,9.56-16.19,18.22-28.55,16.09-6.87-1.18-13.35-3.73-19.16-7.9l-8.64-6.21c-1.38-.99-2.86-1.63-4.47-.7-.86.5-1.86,1.51-2.48,2.9-4.38,9.85,3.16,18.1,5.12,24.68-3.21,4.41-7.96,8.24-13.18,9.8-5.38-13.49-5.58-40.69,1.67-53.97,2.44-1.96,4.9-3.35,9.01-2.31,11.23,2.84,17.56,6.95,28.48,9.78.42-1.18-.72-1.26-.76-1.98-.01-.22.28-.5.22-.76-1.62-6.43-.48-5.58-.87-10.78,2.78-5.41,7.6-8.87,13.11-12.28-10.19,1.98-16.84,9.96-21.44,18.31-2.77-.94-4.51-1.85-6.36-2.74,2.6-8.24,5.47-16.38,10.86-23.54,4.82-6.39,9.83-12.32,14.28-18.95,2.03-3.02,4.31-5.41,7.49-7.32,7.84-4.69,13.63-12.06,16-21.06.17-.65-.08-1.4-.3-1.69-.13-.18-.57-.12-.82-.05,1.03-2.87.55-6.45.2-9.36-.63,6.53-2.78,12.48-7.36,16.28-12.87,10.69-21.32-1-36.14,7.53-2.7,1.56-4.99,3.64-8.08,4.78-2.91,1.08-5.87-1.16-6.72-3.92,4.92-1.04,9.07-2.98,12.28-6.49,1.31-1.44,3.66-5.37,2.25-6.95s-6.18.34-7.91,1.23l5.92-.06c-1.43,4.82-5.18,6.87-9.06,7.85.2-.48-.46-.79-1.11-.9-10.08-1.62-10.74-11.2-11.25-11.6-.14-.11-.29-.2-.55-.12,1.58-6.34,6.78-8.9,12.75-12.59s10.58-8.97,13.32-15.66c1.76-.18,3.36-.35,5.04-.17l-3.64,5.35c2.96.32,5.12-1.67,7.41-2.87,12.24-6.36,6.14-14.32,20.5-14.01.9,1.24.7,2.24,1.71,2.98-.37-13.72,5.25-17.35,11.19-27.92,9.39,10.47,8.96,25.06.88,36.03,2.63-.32,3.42-2.36,5.3-3.53,5.53,5.16,9.12,11.23,12.03,17.94,14.04,32.28-.41,57.92,10.96,81.6,8.4,17.48,24.52,25.51,41.66,32.05,6.01,2.29,11.68,4.54,17.21,7.93,9.95,6.09,17.24,15.56,19.78,27.16,2.17,9.92-2.12,22-6.32,30.73-2.05,4.25-3.89,8.48-4.9,13.04-2.77,12.48,13.46,10.19,10.04,20.73-1.63,5.01-4.23,9.35-6.58,14.16-3.53,7.22-5.81,14.56-6.19,22.45-4.57,1.37-9.03,1.37-13.25.12ZM207.27,101.67c5.13-7.12,7.25-16.67,3-24.67-6.16,4.38-10.97,21.47-3,24.67ZM191.08,109.89c2.57-.85,4.08-.41,5.8-1.71-2.45-1.83-5.22-1.42-7.8-.82-9.2,2.15-15.84,10.24-14.9,19.99,1.27-1.14.41-2.81,1.45-4.12,4.39,1.29,8.62.28,11.87-2.51,2.91-2.5,4.56-6.55,3.58-10.84ZM189.59,129.37c1.68.87,3.06.08,3.68-.89.84-1.3.52-2.71-.46-3.45-1.08-.82-2.32-.79-3.52-.09-.86.5-1.5,1.69-1.29,2.45.17.61.55,1.45,1.59,1.99ZM185.3,130.92c1.28-.84,1.55-2.3.99-3.09-.61-.87-1.65-1.37-2.81-.99-1.59.52-2.33,1.89-1.78,3.12s2.01,2.01,3.6.97ZM153.25,132.04c-.75-.52-1.95-.84-3.18-.32-2.07.89-3.34,3.99-2.12,5.92.81,1.28,2.61,1.28,3.85.71,2.38-1.09,3.21-5.08,1.44-6.31ZM297.78,263.44c2.67-.53,7.11-4.59,5.86-7.7-.3-.75-1.51-.8-2.11-1.52-.72-.85-.73-2.19-1.85-2.64-2.88-1.16-4.86.95-6.15,3.21-.49.5-2.19.23-2.55,1.07s-.88,1.7-.32,2.99c1.07,2.46,3.79,5.25,7.12,4.58ZM302.02,262.33c-1.62.41-2.57,1.91-2.23,3.25.37,1.49,1.78,2.46,3.43,1.96,1.09-.33,2.27-1.98,1.76-3.51-.3-.9-1.57-2.06-2.95-1.71ZM307.29,267.82c-1.62,1.01-1.29,2.73-.43,3.69.96,1.07,2.27,1.22,3.21.52,1.27-.95,1.5-2.48.85-3.49-.82-1.28-2.22-1.59-3.63-.71ZM305.16,276.23c.92-1.04.9-2.46-.19-3.29-.83-.62-2.31-.64-3.22.4s-.79,2.59,0,3.26c1.07.92,2.52.64,3.43-.38ZM312.95,280.19c.84-1.24.92-2.93-.48-3.9-.83-.58-2.51-.71-3.61.34-.9.85-1.38,2.05-1.17,2.95.29,1.23,1.27,2,2.2,2.1,1.28.13,2.3-.38,3.06-1.49ZM298.18,278.7c-1.4.93-1.06,2.69-.35,3.55,1.06,1.28,2.58,1.09,3.35.49,1.29-1.01,1.23-2.5.7-3.33-.72-1.13-2.54-1.48-3.7-.71Z"/>
      <path class="cls-46" d="M260.9,271.3c-4.25,7.45-7,15.35-6.92,24.67-26.68-2.3-61.95-18.49-77.64-41.02,14.29,2.93,24.1-6,30.56-16.46.02.23.1.52,0,.82-.11.32,1.09.38,1,.79-1.99,5.05-4.77,9.18-8.05,13.26-2.24,2.79,7.28,10.73,9.49,12.33,9.01,6.54,19.05,11.08,29.99,13.01,3.99.71,9.69,1.92,13.36.11,3.35-1.76,4.76-6.05,8.2-7.51Z"/>
      <path class="cls-24" d="M149.02,193.33c-1.18,2.02-1.51,4.6-3.13,6.81-4.16-2.42-7.56-5.46-12.14-6.68-8.07-2.14-12.74,11.83-13.85,17.97-1.02,5.69-1.55,11.42-1.42,17.28.02.81,1.93,0,2.41-.18.51-.2.31-1.03.48-1.93l1.58-8.77c.03-.19,2.36-11.24,3.22-8.76-.72,1.36-1.04,2.91-1.4,4.56l-2.26,10.46c-.31,1.45.3,4.15-1.23,4.88-3.69,1.34-10.3,1.73-13.57.9-.1-.26.45-.3.5-.59,2.3-13.43,8.36-32.55,17.89-42.47-.15-.85-.75-1.17-.54-1.69,2.9-1.55,5.61-2.41,9.41-.6,4.97,2.37,9.92,5.33,14.06,8.81Z"/>
      <path class="cls-37" d="M161.66,208.59c-1.56-.75-3.74-.41-5.72-1.8,2.14-7.81,5.39-15.26,9.95-22.18,7.46-11.31,15.38-18.8,20.22-31.4,12.35.85,19.4-7.05,23.06-17.23.25-.08.69-.13.82.05.21.29.47,1.04.3,1.69-2.37,9-8.16,16.36-16,21.06-3.18,1.9-5.46,4.3-7.49,7.32-4.45,6.63-9.46,12.56-14.28,18.95-5.4,7.16-8.26,15.3-10.86,23.54Z"/>
      <path class="cls-31" d="M290.53,369.76c-1.98-.59-4.21-.78-5.89-2.55,2.17-9.66,7.13-16.76,10.82-26.46,1.46-3.85-.22-6.62-3.52-8.3-9.75-4.95-19.95-9.45-26.11-19.03-7.54-11.73-8.94-27.01-2.71-39.31.79.95.44,1.89.12,3.3-4.13,17.84,3.53,36.24,19.15,45.46,4.47,2.64,8.75,5.01,13.46,7.25,3.82,1.82,5.17,5.61,3.2,9.5l-9.26,18.38c-2.07,4.1-1.09,8.17.73,11.76Z"/>
      <path class="cls-72" d="M149.02,193.33c1.41,1.19,3.73,1.48,5.05,3.25l-2.76,8.72c-5.41-1.08-10.59-.24-15.13,2.93-1.32-1.87-2.02-3.36-3.51-4.54-1.4-1.12-3.33-1.11-4.36.43-1.09,1.62-1.81,3.28-2.16,4.95-.86-2.48-3.18,8.57-3.22,8.76l-1.58,8.77c-.16.9.04,1.73-.48,1.93-.48.19-2.39.99-2.41.18-.13-5.86.4-11.59,1.42-17.28,1.11-6.14,5.78-20.11,13.85-17.97,4.59,1.22,7.98,4.26,12.14,6.68,1.61-2.22,1.95-4.79,3.13-6.81Z"/>
      <path class="cls-66" d="M175.68,102.36c-1.62.5-2.34,1.24-3.53,1.15-8.35.66-18.12-.1-19.8-10.82,6.12,4.4,13.81,5.46,20.18,1.8l11.5-6.61c3.83-2.15,8.19-2.13,11.57.48,1.22.94,2.28,3.09,1.07,4.09-14.67-1.06-10.42,9.35-20.96,14.36-.76-1.54.27-2.56-.02-4.45Z"/>
      <path class="cls-45" d="M210.27,229.34c-3.19,4.47-6.11,9.17-10.56,12.78-8.67,7.02-19.63,8.29-29.53,3.2-6.46-3.33-11.88-7.97-16.94-13.59-.89-.99-2.19-1.7-3.05-1-4.66,3.78-1.04,19.07,2.18,23.69.28.58-.12,1.32-.58,1.11-1.96-6.57-9.5-14.83-5.12-24.68.62-1.39,1.63-2.4,2.48-2.9,1.61-.94,3.09-.29,4.47.7l8.64,6.21c5.8,4.17,12.28,6.72,19.16,7.9,12.36,2.12,21.98-6.54,28.55-16.09,1.83.88.52,2.07.32,2.69Z"/>
      <path class="cls-21" d="M229.76,90.7c-1.46,4.14-8.38,11.94-11.66,7.51,1.14-4.5,2.13-8.72,1.43-13.86,3.97-2.43,5.65-6.28,6.95-11.05,4.16,4.92,5.35,11.5,3.27,17.4Z"/>
      <path class="cls-43" d="M125.55,185.12c-.21.53.39.84.54,1.69-9.54,9.93-15.6,29.05-17.89,42.47-.05.29-.6.33-.5.59-.83-.21-3.19-.08-2.94-1.65,2.04-12.84,6.74-24.94,13.26-35.85,2.08-3.48,4.49-5.63,7.53-7.25Z"/>
      <path class="cls-50" d="M138.6,265.32c-.6.18-1.06,1.24-1.76.55-.32-.31-.83-.88-1.1-1.7-4.56-13.46-5.32-28.11-1.88-41.86,1.18-4.74,3.16-8.34,6.42-10.96-7.26,13.29-7.05,40.48-1.67,53.97Z"/>
      <path class="cls-15" d="M185.02,84.98l-5.15-6.63c2.02-.96,4.38,2.43,6.57,1.47,2.97-1.3,1.44-8.17,1.1-11.18,5.5,2.71,11.39,12.3,9.93,18.85-2.33-2.52-5.19-3.77-8.57-3.18l-3.89.68Z"/>
      <path class="cls-41" d="M169.22,86.82c-4.89-9.13-3.57-7.09.45-16.12l5.09,6.97-5.54,9.15Z"/>
      <path class="cls-9" d="M172.11,92.41c-1.33-.82-1.39-2.09-2.06-3.48l5.54-9.63c1.97,2.54,3.6,4.82,5.13,7.49-2.6,2.22-5.38,3.69-8.61,5.61Z"/>
      <path class="cls-57" d="M164.8,76.51c-3.12-7.05-5.21-7.22-1.02-13.7,1.51,1.86,4.02,3.89,4.51,6.14-.49,2.48-2.16,4.77-3.49,7.56Z"/>
      <path class="cls-22" d="M154.56,146.87c-3,.76-6.56,2.02-9.73-.73-3.33-2.89-4.19-7.82-3.17-11.88.26-.08.41.01.55.12.51.39,1.17,9.98,11.25,11.6.66.11,1.31.42,1.11.9Z"/>
      <path class="cls-44" d="M160.47,66.63c-1.64-2.74-2.68-5.56-3.75-8.6.67-1.18.55-2.23,1.64-2.96,1.83,2.05,3.22,3.84,4.39,6.08l-2.28,5.47Z"/>
      <path class="cls-31" d="M177.01,216.83c-1.81-.32-4.02-1.66-5.32-2.74.01-3.95,3.31-6.15,4.67-8.8.38,5.2-.76,4.35.87,10.78.07.26-.23.54-.22.76Z"/>
      <path class="cls-56" d="M152.08,46.71c1.82,2.3,7.2,6.6,3.62,8.97l-3.62-8.97Z"/>
      <path class="cls-16" d="M202.77,74.76c0,1.3-1.23,2.02-2.14,3.22-.88-.69-1.4-1.7-1.98-3,1.24-.42,2.11-.3,4.12-.22Z"/>
      <path class="cls-1" d="M207.27,101.67c-7.97-3.2-3.16-20.29,3-24.67,4.25,8,2.13,17.55-3,24.67Z"/>
      <path class="cls-29" d="M191.08,109.89c.98,4.28-.67,8.34-3.58,10.84-3.24,2.79-7.47,3.8-11.87,2.51-1.03,1.31-.18,2.98-1.45,4.12-.94-9.76,5.69-17.85,14.9-19.99,2.58-.6,5.35-1.02,7.8.82-1.72,1.3-3.24.86-5.8,1.71ZM177.8,119.82c-.95-.11-1.23,1.93-.3,2.11,5.91,1.14,12.47-3.59,11.87-9.87-1.03-1.36-4.78-.24-5.42,1.01.86.54,2.19,2.17,1.2,2.85l-2.01,1.39c-1.03.71-.99,2.26-1.69,2.67-1.15.67-2.55-.03-3.65-.16Z"/>
      <path class="cls-10" d="M297.78,263.44c-3.34.67-6.05-2.12-7.12-4.58-.56-1.29-.03-2.18.32-2.99s2.06-.57,2.55-1.07c1.3-2.26,3.28-4.36,6.15-3.21,1.12.45,1.13,1.78,1.85,2.64.6.72,1.81.77,2.11,1.52,1.26,3.11-3.19,7.16-5.86,7.7Z"/>
      <path class="cls-36" d="M153.25,132.04c1.76,1.23.93,5.21-1.44,6.31-1.24.57-3.04.57-3.85-.71-1.22-1.92.05-5.03,2.12-5.92,1.22-.52,2.42-.21,3.18.32Z"/>
      <path class="cls-6" d="M312.95,280.19c-.76,1.12-1.78,1.62-3.06,1.49-.93-.09-1.91-.87-2.2-2.1-.21-.9.27-2.1,1.17-2.95,1.1-1.05,2.78-.92,3.61-.34,1.4.97,1.32,2.66.48,3.9Z"/>
      <path class="cls-70" d="M189.59,129.37c-1.05-.54-1.42-1.38-1.59-1.99-.21-.76.43-1.95,1.29-2.45,1.21-.7,2.44-.73,3.52.09.98.75,1.3,2.15.46,3.45-.63.97-2,1.76-3.68.89Z"/>
      <path class="cls-54" d="M302.02,262.33c1.38-.35,2.65.81,2.95,1.71.51,1.52-.67,3.18-1.76,3.51-1.65.5-3.06-.47-3.43-1.96-.33-1.35.61-2.84,2.23-3.25Z"/>
      <path class="cls-30" d="M298.18,278.7c1.16-.77,2.98-.41,3.7.71.54.83.59,2.33-.7,3.33-.77.6-2.29.79-3.35-.49-.71-.86-1.05-2.63.35-3.55Z"/>
      <path class="cls-55" d="M307.29,267.82c1.4-.88,2.81-.57,3.63.71.64,1.01.41,2.54-.85,3.49-.94.7-2.25.55-3.21-.52-.86-.96-1.18-2.68.43-3.69Z"/>
      <path class="cls-62" d="M185.3,130.92c-1.59,1.05-3.03.31-3.6-.97s.19-2.6,1.78-3.12c1.16-.38,2.2.13,2.81.99.56.79.29,2.25-.99,3.09Z"/>
      <path class="cls-52" d="M305.16,276.23c-.91,1.03-2.36,1.3-3.43.38-.78-.67-.92-2.2,0-3.26s2.39-1.03,3.22-.4c1.09.82,1.11,2.24.19,3.29Z"/>
      <path class="cls-4" d="M177.8,119.82c1.09.13,2.5.83,3.65.16.7-.41.66-1.96,1.69-2.67l2.01-1.39c.99-.68-.34-2.31-1.2-2.85.64-1.25,4.38-2.37,5.42-1.01.6,6.28-5.96,11.01-11.87,9.87-.93-.18-.64-2.22.3-2.11Z"/>
    </g>
  </g>
</svg>