<?xml version="1.0" encoding="UTF-8"?>
<svg id="Layer_1" data-name="Layer 1" xmlns="http://www.w3.org/2000/svg" viewBox="0 0 512 464.09">
  <defs>
    <style>
      .cls-1 {
        fill: #86b5b0;
      }

      .cls-2 {
        fill: #030304;
      }

      .cls-3 {
        fill: #efb4b2;
      }

      .cls-4 {
        fill: #ee7ba4;
      }

      .cls-5 {
        fill: #a38bb3;
      }

      .cls-6 {
        fill: #8bb5b1;
      }

      .cls-7 {
        fill: #f17ea3;
      }

      .cls-8 {
        fill: #030303;
      }

      .cls-9 {
        fill: #ee8ba8;
      }

      .cls-10 {
        fill: #edcecf;
      }

      .cls-11 {
        fill: #eeb3b1;
      }

      .cls-12 {
        fill: #86b3b0;
      }

      .cls-13 {
        fill: #030403;
      }

      .cls-14 {
        fill: #a48ab1;
      }

      .cls-15 {
        fill: #a48bb5;
      }

      .cls-16 {
        fill: #e9e8e8;
      }

      .cls-17 {
        fill: #eccecf;
      }

      .cls-18 {
        fill: #f2c16b;
      }

      .cls-19 {
        fill: #ed79a4;
      }

      .cls-20 {
        fill: #fafafb;
      }

      .cls-21 {
        fill: #8bb5b0;
      }

      .cls-22 {
        fill: #020202;
      }

      .cls-23 {
        fill: #f3eae8;
      }

      .cls-24 {
        fill: #fff;
      }

      .cls-25 {
        fill: #a891b7;
      }

      .cls-26 {
        fill: #83b2ad;
      }

      .cls-27 {
        fill: #eeb1af;
      }

      .cls-28 {
        fill: #f9f8f9;
      }

      .cls-29 {
        fill: #fafafa;
      }

      .cls-30 {
        fill: #f6be64;
      }

      .cls-31 {
        fill: #92adb3;
      }

      .cls-32 {
        fill: #a182b0;
      }

      .cls-33 {
        fill: #a48bb6;
      }

      .cls-34 {
        fill: #ec79a3;
      }

      .cls-35 {
        fill: #080807;
      }

      .cls-36 {
        fill: #ed78a3;
      }

      .cls-37 {
        fill: #87b5b2;
      }

      .cls-38 {
        fill: #eeb3b2;
      }

      .cls-39 {
        fill: #eeb3b0;
      }

      .cls-40 {
        fill: #88b6b2;
      }

      .cls-41 {
        fill: #88b5b2;
      }

      .cls-42 {
        fill: #f2c068;
      }

      .cls-43 {
        fill: #a385a5;
      }

      .cls-44 {
        fill: #f8f6f7;
      }

      .cls-45 {
        fill: #a88eb3;
      }

      .cls-46 {
        fill: #93809b;
      }

      .cls-47 {
        fill: #f3c066;
      }

      .cls-48 {
        fill: #a78cb4;
      }

      .cls-49 {
        fill: #ed7ba4;
      }

      .cls-50 {
        fill: #b787ab;
      }

      .cls-51 {
        fill: #ed75a1;
      }
    </style>
  </defs>
  <g id="Generative_Object" data-name="Generative Object">
    <g>
      <path class="cls-10" d="M214.9,291.32c-7.86,3.46-14,9.24-18.44,16.43-.79.02-1.32-1.16-1.27-1.99,1.05-17.22-8.44-20.75-2.89-30.86,3.75-6.83,7.74-14.89,2.46-22.11-13.25-18.09-7.92-42.7,11.16-54.35,6.25-3.81,12.35-6.64,19.48-9.18,23.65-8.43,33.77-26.27,35.27-50.69,6.17-1.73,11.92-4.47,16.33-9.33,6.97-7.68,9-18.7,4.75-28.2-.02,9.83-2.76,18.62-10.65,24.1-5.54,3.85-12.2,5.19-18.99,5.54-15.62.82-15.59,11.03-25.16,16-5.22,2.71-11.94,2.77-16-2.3,9.49-.91,16.7-6.6,20.34-15.14,1.98-.08,4.05.82,5.22-1.62-4.08-.95-8.14-.77-11.79-3.13-1.03,2.58,1.04,3.65,3.13,4.84-2.44,4.92-6.56,9.15-12.02,10.62-5.79,1.55-11.43-.46-14.42-5.71-5.39-9.48-2-20.94,7.22-26.38,8.31-4.9,6.02-9.76,12.09-18.9,25.37,1.19,23.1-24.86,38.76-23.55,1.32,1.76,1.61,5.19,4.29,6.11-1.07-12.62,6.25-28.73,17.94-34.35,1.44-.69,3.62-.68,4.91.11.99.61,2.11,1.95,2.6,3.69,3.19,11.36-2.94,26.47-11.34,34.54,1.41.41,2.95-.44,4.67-1.09,19.12,14.41,28.5,37.58,34.35,60.48,4.16,16.28,5.6,32.55,2.09,49l-12.94.89c-3.13-4.24-5.21-8.71-9.66-12.26,1.24,4.8,4.43,8.49,6.66,13.11-3.23,1.25-6.27,1.44-9.84,2.4,3.67,1.38,7.57,1.26,11.77,1.14l26.01-.72c5.11-.14,8.69,2.12,11.02,6.86,5.58,11.37,8.74,29.69,9.84,42.66-7.94,1.22-15.51.04-23.08-2.94,2.18-5.82,2.05-25.51-7.32-22.72l-17.2,5.13c-5.2,1.55-11.18,2.66-16.27.64s-7.81-7.54-11.31-11.98c2.26,13.59,11.3,19.27,23.04,24.96-13.16,15.07-38.63,25-58.32,24.78,4.96-12.63,4.24-26.84-4.69-37.36.77,5,2.98,9.37,3.26,14.54,2.34,18.37-8.66,33.39-22.89,43.78-5.9,4.3-5.3,7.12-2.17,14.49ZM279.92,44.75c-11.83,10.41-13.66,29.62-4.94,24.62,11.9-6.82,12.36-31.14,4.94-24.62ZM213.95,120.76c-.14-2.26-1.38-4.83-3.7-4.77-2.64.07-3.97,2.87-4.51,4.58-.75,2.35-.6,5.16,1.75,6.62,1.94,1.2,3.98,0,5.07-1.26s1.55-2.78,1.4-5.17Z"/>
      <path class="cls-24" d="M267.71,83.44c1.41,1.81-.71,3.71-2.43,4.68l-3.05,1.72c.98,2.16,1.02,19.44-6.53,17.86-1.42,2.6-6.03,3.08-9.16,1.18-8.25-5.01-9.82-16.94-3.8-24.01.26-.31,1.34-1.89,1.34-1.89l5.58-3.33,13.54,6.32s3.29-4.04,4.51-2.53Z"/>
      <path class="cls-20" d="M296.37,287.36c-10.92-.26-20.33,4.37-27.57,11.74-4.48,4.57-6.96,9.55-10.32,15.64-.33-5-5.71-8.9-6.45-13.9-1.13-7.64-1.82-15.03-6.72-21.44,5.88-6.43,10.07-12.97,13.37-20.42l19.03-6.26c24.07,8.69,40.29,21.59,56.05,41.42-6.41-.04-10.96,1.68-13.98,6.85-4.9-8.4-13.18-13.39-23.4-13.64Z"/>
      <path class="cls-33" d="M340.28,295.29c-7.33-8.45-13.8-16.77-22.15-23.95-10.42-8.96-21.84-15.74-34.87-21.21,6.13-3.86,11.54-7.25,16.72-11.74,17.76,8.11,32.83,19.46,44.21,35.06-5.6,8.27-.41,14.04-3.9,21.83Z"/>
      <path class="cls-42" d="M199.56,197.75c-4.14.37-6.97,2.71-10.57,4.27-8.14-5.85-17.61-9.35-27.3-9.01,24.05-14.33,53.96-20.98,81.71-20.97-12.58,15.84-29.51,13.03-43.84,25.71Z"/>
      <path class="cls-12" d="M134.25,260.44c-3.2,3.93-7.52,6.32-12.46,5.96-3.99-.29-7.43-2.5-8.45-6.81,8.24,2.51,15.02-2.11,16.52-10.17.93-4.97.16-9.83-.07-15.01-.54-11.79,3.32-23.44,13.09-30.42,19.14-13.67,43.21-1.83,45.43,4,.22.58-.82,2.71-1.4,2.46-5.22-2.56-10.53-4.69-16.25-5.13-14.56-1.14-27.32,8.57-30.43,22.98-2.52,11.69,2.27,22.04-5.98,32.16Z"/>
      <path class="cls-17" d="M352.08,209.51c-3.54-10.39-6.2-25.37-19.01-25.62l-9.4-.19,1.74-14.5,15.2-3.66c5.16-1.24,9.93.48,12.99,5.11,6.31,9.55,10.67,24.35,12.89,35.65-4.67,1.65-9.44,2.85-14.41,3.21Z"/>
      <path class="cls-49" d="M164.28,266.85c-3.93,9.22-12.11,14.67-21.96,14.7-8.15.02-16.31-2.63-21.75-9.2,5.86,1.98,11.52,3.67,17.64,1.69,12.04-3.9,19-15.56,17.35-27.94-1.56-11.75-2.59-25.93,11.75-30.02,5.69-1.62,11.7-1.22,17.7.33-.1,1.85-.67,3.05-1.29,4.85-6.35-.84-13.07.58-17.16,5.82-8.2,10.51,5.67,21.1-2.28,39.76Z"/>
      <path class="cls-15" d="M176.31,292.75c-13.54,0-19.01,10.41-18.49,21.96l-4.36-8.85c2.24-9.97,6.48-18.45,10.98-27.34,5.57-11,12.54-20.87,22.82-28.23,4.58,6.39,7.29,10.84,2.83,18.57l-13.78,23.89Z"/>
      <path class="cls-1" d="M140.81,270.03c-6.33,3.39-13.8,3.59-19.21-.76,7.99-.78,13.82-4.3,17.45-10.71,6.64-11.72.47-20.13,5.41-33.57,3.99-10.87,14.24-17.92,25.85-16.98,5.57.46,11.3,1.8,16.06,5.73-6.43-.52-11.89-1.67-17.95-.5-8.62,1.66-14.5,7.71-16.08,16.27-.95,5.14-.23,10.37.41,15.85,1.16,9.92-2.76,19.73-11.94,24.65Z"/>
      <path class="cls-25" d="M341.02,82.35c-1.02,5.11-5.29,7.59-9.1,8.67-4.38,1.24-8.89-.05-12.57-2.78-9.78-7.25-9.53-22.79-29.77-20.7,1.76-3.94,3.18-7.31,4.35-11.56,15.22-.03,23.87,6.59,28.2,20.58,2.48,8.01,11.89,6.66,18.89,5.78Z"/>
      <path class="cls-21" d="M332.46,99.9c-7.28,5.07-16.66,4.94-23.55-.47l-7.28-11.28c-4.07-6.3-8.77-11.31-15.04-16.63,9.01-3.36,17.74.95,22.43,8.61,4.75,7.76,10.73,15.7,20.84,14.15,4.6-.71,9.5-2.95,11.99-8.01-1.04,5.51-4.39,10.14-9.39,13.62Z"/>
      <path class="cls-40" d="M121.29,309.8c-5.16-4.73-11.46-6.23-18.31-4.14,2.55-10.9,6.9-20.63,12.45-30.58,5.13,4.8,10.67,7.3,16.5,10.04-4.27,8.25-7.91,16.21-10.64,24.68Z"/>
      <path class="cls-4" d="M260.06,60.76c-18.41.74-15.14,24.1-36.8,23.59-7.67-.18-15.5-4.12-17.95-12.07,5.14,4.37,10.25,6.7,16.78,5.62,11.23-1.84,13.31-12.36,17.87-18.23,5.07-6.53,13.78-9.26,21.23-5.08.2,2.11-.65,3.8-1.12,6.17Z"/>
      <path class="cls-34" d="M344.69,141.86c-.96,2.96-4.13,4.2-7.69,3.95-5.34-.37-11.65-3.71-14.12-8.79-2.75-5.63-3.28-12.03-5.64-18.47,8.24,2.86,15.99,2.34,22.63-2.26,3.36-2.32,4.94-5.75,7.64-9.45,2.1,6.13.67,12.62-3.62,16.92-3.97,3.98-9.3,4.96-15.22,5,2.32,6.59,7.22,13.43,16.01,13.1Z"/>
      <path class="cls-14" d="M234.51,62.88c-1.67,3.75-3.65,7.33-6.92,9.79-5.91,4.44-14.24,3.67-19.46-1.53,7.22,1.39,13.94-1.11,17.32-7.6l4.88-9.37c3.12-5.98,9.01-9.46,14.8-10.79,6.81-1.55,13.53.4,18.57,5.18.64.68-.92,3.38-1.96,3.5-10.42-6.21-22.52.25-27.24,10.81Z"/>
      <path class="cls-48" d="M127.07,311.5l-.83,8.74-2.05-6.11c2.91-9.73,6.94-18.73,11.76-27.91,7.47,1.55,14.09.08,21.18-3.04l-7.57,19.11c-4.84-2.89-9.22-3.07-13.96-.98-3.66,1.61-8.04,5.03-8.53,10.19Z"/>
      <path class="cls-9" d="M351.91,240.19c.22,5.31,1.09,15.09-6.45,14.85-5.25-.16-11.01-.69-14.87-4.42-3.43-3.31-3.19-8.73-1.97-13.31,8.01,3.04,15.3,3.88,23.3,2.87Z"/>
      <path class="cls-6" d="M325.13,223.95c.86,9.01-2.89,12.09-1.61,22.74-6.53-4.21-12.88-7.89-20.19-11.41,5.04-4.86,8.69-9.63,12.35-15.02,3.34.44,6.66,1.51,9.45,3.68Z"/>
      <path class="cls-26" d="M171.99,258.87c.25-5.48-.27-10.97-2.39-16.9-.45-1.26-1.47-3.53-.7-4.72,3.16-4.87,8.13-7.93,13.65-9.6.19,6.63.49,12.46,2.94,18.38-4.85,3.73-8.64,7.65-13.5,12.85Z"/>
      <path class="cls-47" d="M344.01,107.05c-4.66,10.13-18.55,13.69-28.27,7.53-2.04-3.09-3.05-7.1-4.65-10.66,5.76,1.77,10.89,2.57,16.68.39,4.27,4.09,9.09,3.81,16.24,2.74Z"/>
      <path class="cls-5" d="M347.6,270.75l-9.59-11.41c6.01.47,12.62,2.02,17.23-3.95,5.25,6.31,10.65,11.93,14.08,19.34-5.63-6.4-13.79-8.41-21.72-3.98Z"/>
      <path class="cls-7" d="M367.28,218.36c-2.62,4.35-7.84,4.85-12.43,4.43l-1.98-10.46,13.89-3.32c1.12,2.63,2.24,6.49.52,9.34Z"/>
      <path class="cls-51" d="M213.17,52.87c-2.91-3.26-4.26-6.5-6.68-9.98,2.1-3.34,2.76-6.32,4-9.92,2.34,2.85,7.05,4.7,8.26,8.46,1.31,4.06-3.1,8.5-5.58,11.44Z"/>
      <path class="cls-45" d="M220.25,64.16c-2.71-3.15-3.91-5.82-5.8-8.77,3.53-3.42,5.77-7.21,7.11-11.74,2.39,1.78,3.96,3.38,6.25,5.66-2.2,5-3.9,10.03-7.56,14.85Z"/>
      <path class="cls-44" d="M255.06,144.04l-16.48-.65c5.95-7.67,7.22-8.43,16.95-8.93.42,3.2.01,5.89-.47,9.58Z"/>
      <path class="cls-32" d="M342.05,148.68c-4.13,5.84-10.64,7.25-16.9,7.46l-1.59-13.26c5.61,4.24,11.28,6.99,18.49,5.8Z"/>
      <path class="cls-30" d="M205.11,40.31l-6.18-9.57c1.44-1.85,1.99-3.33,3.07-5.33,2.6,1.87,4.32,3.74,6.1,5.97-.21,3.2-.78,6.13-3,8.93Z"/>
      <path class="cls-23" d="M190.87,300.53c-2.62-2.64-4.89-5.61-9.27-6.86,1.28-3.4,2.8-5.9,5.1-9.12,1.81,4.94,4.2,9.5,4.17,15.98Z"/>
      <path class="cls-50" d="M199.77,23.65c-.36,1.77-.66,2.97-1.77,4.33-2.1-2.8-3.75-5.49-4.39-9.15,2.71,1.07,4.14,2.89,6.16,4.82Z"/>
      <path class="cls-43" d="M223.2,288.5c-.71.69-3.07,1.54-3.81.67-1.57-1.83-2.19-4.83-.81-7.03,2.18,1.7,2.87,3.96,4.62,6.36Z"/>
      <path class="cls-8" d="M259.24,106.78c-3.54,4.18-9.57,4.01-12.7,2.1-8.24-5.01-9.82-16.94-3.8-24.01,4.38.13,9.13,1.37,10.71,6.04-2.51.71-4.74,2.26-4.65,4.76l6.88,1.4c.35,3.77-1.37,6.92-2.21,10.36.1.85,5.28-.56,5.78-.65Z"/>
      <path class="cls-8" d="M279.92,44.75c7.42-6.53,6.96,17.8-4.94,24.62-8.72,5-6.9-14.21,4.94-24.62Z"/>
      <path class="cls-35" d="M262.45,90.68c-1.58-3.49-6.74-7.76-9.96-8.89-4.53-1.59-7.67.23-9.75,3.08.17-.23,1.34-1.9,1.34-1.9,0,0,3.21-3.64,5.44-3.99,5.29-.83,10.31,1.61,13.53,6.38,1.51-1.27,4-3.86,5.22-2.34,1.41,1.81-1.28,4.78-3,5.75l-2.82,1.9Z"/>
      <path class="cls-13" d="M213.95,120.76c.15,2.39-.37,3.96-1.4,5.17-1.09,1.27-3.13,2.46-5.07,1.26-2.35-1.45-2.5-4.27-1.75-6.62.55-1.71,1.88-4.52,4.51-4.58,2.32-.06,3.56,2.52,3.7,4.77Z"/>
      <path class="cls-24" d="M258.78,97.13c3.22,0,3.22-5,0-5s-3.22,5,0,5h0Z"/>
    </g>
    <g>
      <path class="cls-2" d="M127.3,440.27c.25-.4-.14-.57-.41-.73-.91-.53-.59.39-.98.81-18.15,19.47-46.27,27.97-72.66,21.7-13.58-3.23-24.55-10.8-33.84-20.52-21.19-22.2-27.42-58.68-6.58-82.76-14.22-22.75-13.4-51.15,5.08-70.36,6.65-6.92,14.48-11.65,23.96-13.71l7.25-18.85c19.37-50.33,78.7-104.12,133.29-118.03-6.09-16.48,0-33.6,14.05-43.9-6.64-6.94-10.61-15-10.61-24.16-.21-5.93,1.76-11.04,4.55-15.71.69.21.89-.56-.08-.82-6.32-10.26-18.53-26.59-15.08-39.66,2.42-9.14,10.6-14.8,19.93-13.35,5.04.78,9.59,2.95,13.52,6.11,8.57,6.91,16.52,14.22,24.88,21.93,10.1-4.33,20.67-5.39,30.7-1.46,5.61-5.22,11.68-8.1,18.69-8.91,7.84-.98,14.84,2.32,19.52,8.4,3.27,4.25,6.51,8.17,8.64,13.42,12.21,3.67,21.75,12.45,27.34,24.36,7.77-.06,13.97,3.72,19.09,9.35,6.93,7.63,10.49,17.47,7.61,27.51,8.79,11.45,8.09,26.37.58,38.08,2.37,4.86,2.78,9.89,1.57,15.35,58.73,28.86,103.28,92.14,113.61,156.37,11.96,6.57,24.17,24.5,28.34,36.92,5.06,15.08,3.34,33.07-7.65,45.28,10.98,21.25,2.71,47-18.13,58.45-22.34,12.35-47.63,6.94-65.76-10.31-15.05,6.83-31.95,4.23-43.6-7.85-17.48,7.14-34.88,2.17-48.75-10.98-19.29,8.93-38.15,8.79-56.23-4.14-15.77,12.94-40.05,16.32-58.37,5.72-12.45,11.51-27.89,16.84-43.73,8.16-10.41,11.38-26.19,14.61-39.77,8.29ZM263.96,410.38c5.69,4.52,10.85,6.82,17.02,8.53,13.5,3.55,27.35,1.69,39.58-4.98,12.73,14.19,31.71,18.66,48.79,11.46,7.79,7.84,17.54,11.76,28.23,11.55,5.37-.43,10.1-1.99,14.97-4.11,14.92,15.93,37.91,21.67,58.2,14.12,24.54-8.84,37.48-37.94,24.18-61.54,11.74-13.96,13.9-33.14,6.07-49.43-5.42-11.27-13.99-19.86-24.93-25.89-4.28-28.37-13.95-55.44-28.96-79.9-7.22-11.77-15.34-21.98-24.8-32.2-17.94-19.39-38.97-34.41-63.1-45.55,2.83-7.06,3.32-13.94-.32-20.17,3.84-6.27,5.85-12.75,5.98-19.99-.21-7.16-2.87-13.73-7.53-18.9,1.33-4.43,1.76-8.83.51-13.29-2.66-9.48-11.4-14.95-21.04-13.71-5.08-13.84-16.5-23.38-30.81-25.73-.47-6.47-3.26-12.04-7.83-16.27-9.84-9.11-25.11-3.82-33.8,4.76-11.21-4.85-20.41-3.06-31.42,1.32-8.64-8.31-17.26-16.14-26.77-23.67-3.88-3.07-8.38-4.68-13.05-4.92-7.32-.38-13.38,4.02-15.69,10.97-1.73,5.19-.95,10.64,1.19,15.71,3.87,9.13,8.94,17.22,14.72,25.25-10.62,12.06-4.94,30.37,5.86,40.12-14.99,11.11-21.6,27.48-14.33,45.03-27.81,8.28-52.78,21.49-74.76,39.96-30.68,25.77-54.42,59.22-66.61,97.24-10.84,2.31-19.55,7.91-26.56,16.17-16.43,19.38-15.16,45.93-1.74,66.83-21.34,22.34-15.1,59.6,5.06,80.29,25.92,26.59,76.76,20.83,100.28-7.41,14.59,7.63,29.14,3.68,40.87-7.36,13.75,8.61,32.89,3.43,43.39-8.58,19.53,10.94,41.22,7.71,59.13-5.69Z"/>
      <path class="cls-16" d="M127.3,440.27c-.47-.03-.95-.12-1.38.08.39-.42.06-1.34.98-.81.27.16.66.33.41.73Z"/>
      <path class="cls-16" d="M190.42,54.05l-.08-.82c.97.26.77,1.02.08.82Z"/>
      <path class="cls-28" d="M263.96,410.38c-17.91,13.4-39.6,16.63-59.13,5.69-10.5,12.02-29.64,17.2-43.39,8.58-11.74,11.04-26.28,14.98-40.87,7.36-23.51,28.24-74.36,34.01-100.28,7.41-20.16-20.68-26.4-57.95-5.06-80.29-13.42-20.9-14.69-47.45,1.74-66.83,7-8.26,15.71-13.86,26.56-16.17,12.19-38.02,35.93-71.47,66.61-97.24,21.98-18.46,46.95-31.68,74.76-39.96-7.27-17.55-.65-33.93,14.33-45.03-10.8-9.75-16.48-28.07-5.86-40.12-5.78-8.03-10.86-16.12-14.72-25.25-2.15-5.07-2.93-10.51-1.19-15.71,2.32-6.94,8.38-11.35,15.69-10.97,4.67.24,9.17,1.85,13.05,4.92,9.51,7.53,18.13,15.36,26.77,23.67,11.01-4.39,20.21-6.17,31.42-1.32,8.69-8.57,23.96-13.87,33.8-4.76,4.57,4.23,7.36,9.8,7.83,16.27,14.31,2.35,25.73,11.89,30.81,25.73,9.64-1.25,18.38,4.23,21.04,13.71,1.25,4.46.82,8.86-.51,13.29,4.65,5.17,7.32,11.74,7.53,18.9-.13,7.24-2.14,13.72-5.98,19.99,3.64,6.23,3.15,13.11.32,20.17,24.13,11.15,45.16,26.17,63.1,45.55,9.46,10.23,17.58,20.43,24.8,32.2,15.01,24.46,24.68,51.54,28.96,79.9,10.94,6.03,19.51,14.62,24.93,25.89,7.83,16.29,5.68,35.47-6.07,49.43,13.3,23.6.36,52.7-24.18,61.54-20.29,7.55-43.28,1.81-58.2-14.12-4.87,2.12-9.6,3.68-14.97,4.11-10.69.21-20.44-3.71-28.23-11.55-17.08,7.2-36.06,2.74-48.79-11.46-12.23,6.67-26.08,8.52-39.58,4.98-6.17-1.71-11.33-4-17.02-8.53ZM415.53,414.35c4.72,9.11,10.74,15.2,18.93,19.37,13.96,7.1,30.73,6.03,42.89-4.25,10.13-8.56,13.53-22.38,8.68-34.5-1.76-4.39-4.32-7.74-6.78-11.37,11.27-7.64,16.29-20.7,13.2-33.99-3.06-13.17-14.3-28.43-28.16-31.42-2.7-22.8-9.07-44.42-19.19-64.74-20.45-41.05-49.98-69.62-90.66-89.7-5.18-2.56-9.62-5.71-16.49-5.98,7.99-5.1,11.92-12.02,10.96-20.71-5.05,1.28-9.69-.48-13.18-4.04,7.55-1.71,13.24-5.93,15.63-12.32s1.68-15.04-3.72-19.49c-4.27,1.77-9.54,3.88-13.9,2.51,6.58-4.08,11.73-10.43,11.76-18.08.01-3.41-1.93-7.39-5.66-7.39-3.29,0-9.59,2.2-11.88-1.2-2.96-4.4-4.03-9.77-7.5-13.96-6.34-7.68-15.3-11.54-25.59-11.44.13-5-.22-9.64-2.23-14.06-2.4-5.28-7.93-6.85-13.18-4.31-5.41,2.62-9.16,7.17-13.13,11.88-11.58-9.29-23.59-8.38-35.11,1.28l-15.72-14.77c-6.23-5.86-12.45-11.38-19.62-16.24-1.76-1.19-4.31-1.08-5.59.38-3.61,4.1,4.48,16.09,7.47,21.01l18.14,29.75c-5.04,2-9.94.16-14.85-3.23-2.48,11.22,4.43,21.27,14.72,25.06-2.33,4.36-3.85,8.15-5.61,12.34-1.54,3.65-16.04,7.14-15.97,24.86.03,8.71,4.62,16.18,12.9,21.32-38.59,6.89-72.25,24.77-99.71,51.25-25.26,24.35-43.93,54.48-53.5,88.49-15.43,1.42-28.5,10.35-34,24.5-7.49,19.3,2.44,37.21,14.7,53.36-10.28,2.56-17.24,9.81-18.99,20.37-2.18,13.17.55,27.12,7.85,38.45,7.28,11.3,19.19,18.22,32.47,20.46,23.42,3.94,51.64-6.9,61.73-30.03,4.54,5.33,9.64,9.35,16.47,9.89,12.05.95,22.05-7.19,24.94-19.11,4.55,6.94,11.18,12.48,19.65,12.26,11.9-.31,20.84-9.27,23.77-20.56,4.89,6.35,10.62,10.83,17.94,12.91,16.29,4.62,33.96-1.73,43.54-16.43,3.06,3.38,5.57,6.75,9.3,9.31,16.44,11.26,37.97,8.24,51.52-6.81,4.77,15.53,19.84,24.19,35.06,20.66,5.13-1.19,8.74-4.32,13.19-7.54,3.16,9.04,10.33,14.79,18.31,16.14,9.76,1.65,18.15-1.95,24.2-10.06Z"/>
      <path class="cls-36" d="M123.61,216.24c-21.36,20.67-36.85,46.04-45.97,74.27-5.93-2.81-12.28-3.99-19.04-4.51,7.94-28.08,22.58-52.99,41.76-74.34,30.21-33.77,66.28-52.97,110.37-61.6,7.46,5.5,16.84,4.89,23.11-2.18l20.81.9c-1.19,7-3.76,13.08-7.55,18.87-34.42-.26-67.41,7.5-96.33,26.92-7.44,2.32-13.31,7.03-18.11,12.99-2.73,3.38-5.71,5.44-9.05,8.67Z"/>
      <path class="cls-19" d="M441.08,321.59c-3.43-19.19-8.24-36.89-16.26-54.01-12.7-26.86-31.32-49.94-55.13-67.39-2.15-10.21-5.21-19.43-9.78-28.85,37.38,19.69,66.39,50.93,83.55,89.1,8.58,18.26,13.99,37.07,16.57,57.1-6.65-.12-12.46,1.22-18.94,4.06Z"/>
      <path class="cls-18" d="M431.67,301.98c-1.64-9.89-3.49-6.67-7.48-16.57-3.71-9.2-13.2-13.94-22.83-11.28-9.11-18.43-20.94-34.79-36.54-47.55,8.86-4.49,8.27-10.23,7.44-18.92,37.15,29.57,57.71,70.19,64.86,116.21-4.52,3.62-8.2,7.12-11.97,11.6-1.54-4.55-2.89-8.39-5.28-12.31,7.94-3.98,13.24-12.54,11.81-21.17Z"/>
      <path class="cls-42" d="M112.44,271.59c-6.6,11.61-11.65,23.44-14.34,36.38-1.8,1.04-2.56,2.53-4.37,4.05-1.65-7.74-5.41-14.45-12.39-19.08,7.45-24.93,25.6-56.05,45.45-73.52-1.65,7.88-1.93,14.53-.94,21.9.47,3.51.18,7.05-1.49,10.03-1.83,3.55-5.77,5-9.5,3.57-2.56-.98-4.03-2.81-6.17-4.74-1.25,7.37-.81,14.52,3.75,21.41Z"/>
      <path class="cls-37" d="M395.2,310.91c-.63,1.83-2.45,1.45-4.23,2.03-.31-4.23-2.39-7.34-5.56-10.07-4.41-20.25-14.24-36.79-29.09-52.38,1.2-7.35.38-14.92-.57-22.1,1.82-1.39,4.91-.57,5.95,1.39,15.7,13.02,26.38,27.84,35.71,46.12-7.28,4.84-10.11,13.36-7.29,21.69l5.07,13.33Z"/>
      <g>
        <path class="cls-8" d="M415.53,414.35c-6.04,8.11-14.44,11.71-24.2,10.06-7.97-1.35-15.14-7.11-18.31-16.14-4.45,3.21-8.06,6.35-13.19,7.54-15.22,3.52-30.29-5.13-35.06-20.66-13.55,15.05-35.07,18.07-51.52,6.81-3.74-2.56-6.24-5.93-9.3-9.31-9.59,14.7-27.25,21.05-43.54,16.43-7.32-2.08-13.05-6.56-17.94-12.91-2.93,11.3-11.87,20.25-23.77,20.56-8.47.22-15.1-5.31-19.65-12.26-2.9,11.92-12.89,20.05-24.94,19.11-6.84-.54-11.93-4.56-16.47-9.89-10.09,23.14-38.31,33.98-61.73,30.03-13.29-2.24-25.19-9.15-32.47-20.46-7.3-11.33-10.03-25.28-7.85-38.45,1.75-10.56,8.71-17.81,18.99-20.37-12.25-16.15-22.19-34.06-14.7-53.36,5.5-14.15,18.57-23.08,34-24.5,9.57-34.01,28.25-64.13,53.5-88.49,27.46-26.48,61.12-44.35,99.71-51.25-8.28-5.14-12.86-12.6-12.9-21.32-.07-17.71,14.44-21.2,15.97-24.86,1.76-4.19,3.28-7.98,5.61-12.34-10.29-3.78-17.2-13.84-14.72-25.06,4.91,3.39,9.81,5.23,14.85,3.23l-18.14-29.75c-3-4.92-11.08-16.91-7.47-21.01,1.28-1.45,3.84-1.57,5.59-.38,7.17,4.86,13.39,10.38,19.62,16.24l15.72,14.77c11.52-9.65,23.53-10.57,35.11-1.28,3.97-4.71,7.72-9.26,13.13-11.88,5.25-2.54,10.78-.97,13.18,4.31,2.01,4.42,2.36,9.06,2.23,14.06,10.29-.09,19.24,3.77,25.59,11.44,3.47,4.2,4.54,9.57,7.5,13.96,2.29,3.41,8.59,1.2,11.88,1.2,3.72,0,5.67,3.99,5.66,7.39-.03,7.65-5.18,14-11.76,18.08,4.35,1.38,9.62-.74,13.9-2.51,5.4,4.45,6.12,13.07,3.72,19.49s-8.08,10.61-15.63,12.32c3.48,3.56,8.13,5.33,13.18,4.04.95,8.7-2.97,15.61-10.96,20.71,6.87.27,11.31,3.42,16.49,5.98,40.69,20.08,70.21,48.65,90.66,89.7,10.12,20.32,16.49,41.94,19.19,64.74,13.87,2.99,25.1,18.25,28.16,31.42,3.09,13.29-1.93,26.35-13.2,33.99,2.45,3.63,5.02,6.97,6.78,11.37,4.85,12.13,1.44,25.95-8.68,34.5-12.16,10.27-28.94,11.35-42.89,4.25-8.18-4.17-14.2-10.26-18.93-19.37ZM199.77,23.65c-2.02-1.92-3.44-3.74-6.16-4.82.64,3.66,2.29,6.35,4.39,9.15,1.11-1.36,1.41-2.56,1.77-4.33ZM205.11,40.31c2.22-2.81,2.79-5.73,3-8.93-1.78-2.23-3.51-4.1-6.1-5.97-1.07,2-1.63,3.48-3.07,5.33l6.18,9.57ZM213.17,52.87c2.48-2.94,6.89-7.38,5.58-11.44-1.21-3.76-5.92-5.61-8.26-8.46-1.24,3.6-1.9,6.58-4,9.92,2.42,3.48,3.77,6.73,6.68,9.98ZM214.9,291.32c-3.13-7.37-3.72-10.19,2.17-14.49,14.23-10.39,25.23-25.4,22.89-43.78-.29-5.16-2.49-9.54-3.26-14.54,8.93,10.52,9.65,24.73,4.69,37.36,19.7.22,45.17-9.7,58.32-24.78-11.74-5.69-20.78-11.37-23.04-24.96,3.5,4.45,5.98,9.86,11.31,11.98s11.07.91,16.27-.64l17.2-5.13c9.37-2.79,9.5,16.9,7.32,22.72,7.56,2.99,15.14,4.16,23.08,2.94-1.1-12.97-4.26-31.3-9.84-42.66-2.33-4.74-5.9-7-11.02-6.86l-26.01.72c-4.2.12-8.09.24-11.77-1.14,3.56-.97,6.61-1.15,9.84-2.4-2.22-4.61-5.42-8.31-6.66-13.11,4.45,3.55,6.53,8.02,9.66,12.26l12.94-.89c3.51-16.45,2.07-32.72-2.09-49-5.85-22.9-15.23-46.07-34.35-60.48-1.72.65-3.27,1.5-4.67,1.09,8.41-8.07,14.54-23.19,11.34-34.54-.49-1.74-1.61-3.08-2.6-3.69-1.29-.79-3.47-.8-4.91-.11-11.69,5.62-19,21.73-17.94,34.35-2.69-.92-2.97-4.35-4.29-6.11-15.67-1.31-13.39,24.73-38.76,23.55-6.08,9.14-3.78,14-12.09,18.9-9.22,5.43-12.61,16.89-7.22,26.38,2.99,5.25,8.63,7.26,14.42,5.71,5.46-1.47,9.59-5.7,12.02-10.62-2.09-1.19-4.16-2.27-3.13-4.84,3.65,2.35,7.71,2.18,11.79,3.13-1.17,2.44-3.24,1.54-5.22,1.62-3.64,8.54-10.86,14.23-20.34,15.14,4.06,5.06,10.78,5.01,16,2.3,9.57-4.97,9.55-15.18,25.16-16,6.79-.36,13.45-1.7,18.99-5.54,7.89-5.48,10.63-14.27,10.65-24.1,4.25,9.5,2.22,20.52-4.75,28.2-4.41,4.86-10.16,7.6-16.33,9.33-1.5,24.42-11.62,42.26-35.27,50.69-7.13,2.54-13.23,5.37-19.48,9.18-19.09,11.65-24.41,36.25-11.16,54.35,5.28,7.22,1.29,15.28-2.46,22.11-5.55,10.11,3.94,13.64,2.89,30.86-.05.84.49,2.02,1.27,1.99,4.44-7.19,10.57-12.98,18.44-16.43ZM234.51,62.88c4.71-10.56,16.81-17.02,27.24-10.81,1.04-.12,2.6-2.82,1.96-3.5-5.04-4.78-11.77-6.73-18.57-5.18-5.79,1.32-11.68,4.8-14.8,10.79l-4.88,9.37c-3.38,6.49-10.1,8.99-17.32,7.6,5.22,5.2,13.55,5.97,19.46,1.53,3.27-2.46,5.25-6.03,6.92-9.79ZM220.25,64.16c3.66-4.82,5.37-9.85,7.56-14.85-2.29-2.28-3.86-3.88-6.25-5.66-1.34,4.54-3.58,8.32-7.11,11.74,1.89,2.95,3.09,5.62,5.8,8.77ZM260.06,60.76c.47-2.37,1.33-4.05,1.12-6.17-7.45-4.18-16.16-1.45-21.23,5.08-4.56,5.87-6.64,16.39-17.87,18.23-6.53,1.07-11.65-1.26-16.78-5.62,2.46,7.94,10.28,11.89,17.95,12.07,21.67.51,18.39-22.85,36.8-23.59ZM341.02,82.35c-7,.88-16.41,2.22-18.89-5.78-4.33-13.99-12.98-20.62-28.2-20.58-1.17,4.25-2.59,7.62-4.35,11.56,20.24-2.09,19.99,13.45,29.77,20.7,3.68,2.73,8.19,4.01,12.57,2.78,3.81-1.08,8.08-3.56,9.1-8.67ZM332.46,99.9c5-3.48,8.35-8.12,9.39-13.62-2.5,5.07-7.4,7.31-11.99,8.01-10.11,1.55-16.09-6.39-20.84-14.15-4.69-7.66-13.42-11.97-22.43-8.61,6.28,5.32,10.97,10.32,15.04,16.63l7.28,11.28c6.89,5.41,16.26,5.55,23.55.47ZM344.01,107.05c-7.15,1.07-11.97,1.35-16.24-2.74-5.79,2.18-10.92,1.38-16.68-.39,1.6,3.55,2.61,7.57,4.65,10.66,9.72,6.17,23.61,2.61,28.27-7.53ZM344.69,141.86c-8.79.33-13.69-6.5-16.01-13.1,5.92-.04,11.25-1.02,15.22-5,4.29-4.3,5.72-10.79,3.62-16.92-2.7,3.7-4.28,7.13-7.64,9.45-6.65,4.59-14.39,5.11-22.63,2.26,2.36,6.44,2.9,12.84,5.64,18.47,2.47,5.07,8.78,8.42,14.12,8.79,3.56.25,6.73-.99,7.69-3.95ZM255.06,144.04c.48-3.69.89-6.38.47-9.58-9.73.51-10.99,1.26-16.95,8.93l16.48.65ZM342.05,148.68c-7.2,1.19-12.88-1.56-18.49-5.8l1.59,13.26c6.26-.21,12.77-1.62,16.9-7.46ZM123.61,216.24c3.34-3.24,6.33-5.29,9.05-8.67,4.8-5.95,10.67-10.67,18.11-12.99,28.92-19.42,61.91-27.18,96.33-26.92,3.8-5.79,6.36-11.86,7.55-18.87l-20.81-.9c-6.28,7.06-15.65,7.67-23.11,2.18-44.09,8.63-80.15,27.82-110.37,61.6-19.18,21.35-33.82,46.26-41.76,74.34,6.76.51,13.11,1.7,19.04,4.51,9.12-28.24,24.61-53.6,45.97-74.27ZM352.08,209.51c4.97-.36,9.74-1.57,14.41-3.21-2.22-11.3-6.57-26.1-12.89-35.65-3.06-4.63-7.83-6.36-12.99-5.11l-15.2,3.66-1.74,14.5,9.4.19c12.81.26,15.46,15.23,19.01,25.62ZM441.08,321.59c6.49-2.84,12.3-4.18,18.94-4.06-2.58-20.03-8-38.84-16.57-57.1-17.16-38.17-46.17-69.41-83.55-89.1,4.57,9.42,7.63,18.63,9.78,28.85,23.81,17.45,42.43,40.53,55.13,67.39,8.03,17.13,12.84,34.83,16.26,54.01ZM199.56,197.75c14.33-12.67,31.26-9.86,43.84-25.71-27.74-.02-57.66,6.64-81.71,20.97,9.69-.33,19.16,3.16,27.3,9.01,3.6-1.56,6.43-3.9,10.57-4.27ZM134.25,260.44c8.25-10.12,3.45-20.46,5.98-32.16,3.11-14.41,15.87-24.12,30.43-22.98,5.73.45,11.04,2.58,16.25,5.13.58.25,1.62-1.88,1.4-2.46-2.22-5.83-26.29-17.67-45.43-4-9.77,6.98-13.63,18.62-13.09,30.42.24,5.17,1,10.04.07,15.01-1.5,8.06-8.28,12.68-16.52,10.17,1.01,4.31,4.45,6.52,8.45,6.81,4.94.36,9.26-2.03,12.46-5.96ZM140.81,270.03c9.19-4.92,13.1-14.73,11.94-24.65-.64-5.49-1.36-10.71-.41-15.85,1.58-8.56,7.47-14.61,16.08-16.27,6.06-1.17,11.52-.02,17.95.5-4.76-3.93-10.49-5.28-16.06-5.73-11.6-.95-21.85,6.11-25.85,16.98-4.94,13.44,1.23,21.85-5.41,33.57-3.63,6.41-9.47,9.94-17.45,10.71,5.41,4.35,12.88,4.15,19.21.76ZM431.67,301.98c1.43,8.63-3.87,17.19-11.81,21.17,2.39,3.92,3.73,7.76,5.28,12.31,3.77-4.47,7.45-7.97,11.97-11.6-7.14-46.02-27.7-86.64-64.86-116.21.83,8.69,1.42,14.43-7.44,18.92,15.61,12.77,27.43,29.12,36.54,47.55,9.63-2.66,19.12,2.08,22.83,11.28,3.99,9.89,5.84,6.68,7.48,16.57ZM367.28,218.36c1.72-2.85.6-6.71-.52-9.34l-13.89,3.32,1.98,10.46c4.6.42,9.82-.08,12.43-4.43ZM164.28,266.85c7.94-18.66-5.92-29.25,2.28-39.76,4.09-5.24,10.81-6.66,17.16-5.82.61-1.8,1.19-2.99,1.29-4.85-6-1.55-12.01-1.95-17.7-.33-14.34,4.09-13.31,18.26-11.75,30.02,1.65,12.38-5.31,24.03-17.35,27.94-6.12,1.98-11.77.29-17.64-1.69,5.44,6.57,13.6,9.22,21.75,9.2,9.85-.03,18.03-5.48,21.96-14.7ZM112.44,271.59c-4.56-6.89-5-14.03-3.75-21.41,2.14,1.92,3.62,3.76,6.17,4.74,3.73,1.43,7.67-.02,9.5-3.57,1.67-2.98,1.96-6.52,1.49-10.03-.99-7.37-.71-14.03.94-21.9-19.84,17.48-37.99,48.59-45.45,73.52,6.98,4.63,10.74,11.34,12.39,19.08,1.81-1.52,2.58-3.01,4.37-4.05,2.7-12.94,7.74-24.77,14.34-36.38ZM325.13,223.95c-2.79-2.17-6.11-3.24-9.45-3.68-3.67,5.39-7.31,10.15-12.35,15.02,7.31,3.52,13.66,7.2,20.19,11.41-1.28-10.66,2.47-13.73,1.61-22.74ZM171.99,258.87c4.87-5.19,8.65-9.12,13.5-12.85-2.45-5.92-2.75-11.74-2.94-18.38-5.52,1.67-10.5,4.73-13.65,9.6-.77,1.19.25,3.45.7,4.72,2.12,5.93,2.64,11.42,2.39,16.9ZM395.2,310.91l-5.07-13.33c-2.82-8.34.01-16.85,7.29-21.69-9.34-18.28-20.01-33.1-35.71-46.12-1.04-1.96-4.13-2.78-5.95-1.39.95,7.18,1.77,14.75.57,22.1,14.85,15.59,24.68,32.13,29.09,52.38,3.17,2.74,5.25,5.84,5.56,10.07,1.78-.58,3.59-.2,4.23-2.03ZM351.91,240.19c-8,1.01-15.29.17-23.3-2.87-1.21,4.58-1.46,9.99,1.97,13.31,3.86,3.73,9.62,4.26,14.87,4.42,7.54.23,6.67-9.54,6.45-14.85ZM340.28,295.29c3.49-7.79-1.7-13.56,3.9-21.83-11.38-15.61-26.44-26.96-44.21-35.06-5.18,4.49-10.59,7.88-16.72,11.74,13.03,5.47,24.45,12.25,34.87,21.21,8.35,7.18,14.83,15.49,22.15,23.95ZM176.31,292.75l13.78-23.89c4.46-7.72,1.75-12.17-2.83-18.57-10.28,7.37-17.25,17.23-22.82,28.23-4.5,8.89-8.74,17.37-10.98,27.34l4.36,8.85c-.53-11.55,4.95-21.97,18.49-21.96ZM296.37,287.36c10.22.24,18.5,5.23,23.4,13.64,3.03-5.16,7.58-6.88,13.98-6.85-15.76-19.83-31.98-32.73-56.05-41.42l-19.03,6.26c-3.3,7.45-7.48,13.99-13.37,20.42,4.9,6.41,5.59,13.8,6.72,21.44.74,5.01,6.12,8.91,6.45,13.9,3.36-6.09,5.84-11.08,10.32-15.64,7.24-7.38,16.65-12,27.57-11.74ZM347.6,270.75c7.93-4.43,16.09-2.42,21.72,3.98-3.43-7.41-8.83-13.03-14.08-19.34-4.61,5.97-11.22,4.42-17.23,3.95l9.59,11.41ZM359.48,394.14c11.62-6.91,12.38-22.5,4.32-34.2-6.51-9.44-8.3-21.1-4.09-31.67,1.89-4.73,6.6-5.64,11.06-3.92,6.46,2.48,12.49-.54,14.67-6.68,1.05-2.96,1.44-5.93-.21-8.68-3.71-6.18-12.38-3.81-15.94-5.01-5.36-1.81-7.11-7.98-5.15-13.3,1.18-3.19,3.02-6.2,2.6-9.61-.75-6.03-6.46-9.02-11.47-8.56-5.95.54-9.89,5.31-9.98,11.32-.07,4.62,1.37,11.81-2.62,14.43s-9.69-1.65-15.06.79c-3.48,1.58-5.12,5.01-5.3,7.87-1.15,18.22,20.29,5.6,18.91,19.52-2.03,20.56-14.1,31.66-15.66,46.53-.73,6.92,1.12,13.66,6.48,18.32,7.5,6.52,18.63,8.1,27.44,2.86ZM121.29,309.8c2.73-8.47,6.36-16.43,10.64-24.68-5.83-2.74-11.37-5.25-16.5-10.04-5.55,9.95-9.9,19.68-12.45,30.58,6.85-2.09,13.15-.58,18.31,4.14ZM410.32,304.41c8.99-2.06,12.51-12.15,8.83-19.27-4.02-7.79-13.83-10.37-20.82-4.7-5.26,4.27-6.77,11.4-3.56,17.34,2.63,4.87,8.82,8.18,15.55,6.64ZM223.2,288.5c-1.75-2.4-2.44-4.66-4.62-6.36-1.38,2.2-.76,5.19.81,7.03.75.87,3.11.02,3.81-.67ZM127.07,311.5c.49-5.16,4.86-8.58,8.53-10.19,4.74-2.09,9.12-1.91,13.96.98l7.57-19.11c-7.1,3.12-13.72,4.59-21.18,3.04-4.82,9.18-8.85,18.18-11.76,27.91l2.05,6.11.83-8.74ZM190.87,300.53c.03-6.49-2.37-11.04-4.17-15.98-2.29,3.22-3.81,5.73-5.1,9.12,4.38,1.25,6.65,4.22,9.27,6.86ZM95.02,413.05c11.73-9.73,15.77-24.32,10.77-38.67-10.81-31.03-45.7-31.71-56.94-44.4-2.92-3.3-4.18-7.91-1.81-11.89,1.82-3.05,5.14-4.69,8.47-4.21,9.22,1.33,4.74,14.12,18.27,14.85,8.27.45,15.1-5.53,15.4-14.14.28-7.95-4.39-14.52-11.19-18.69-15.67-9.62-36.4-6.57-48.54,7.3-7.73,8.83-9.94,20.99-5.62,31.98,4.59,11.67,16.48,16.48,26.78,20.43,7.9,3.03,24.76,8.66,19.92,20.01-1.52,3.56-5.36,6.24-9.82,5.84-9.82-.87-9.27-10.3-18.51-12.54-8.61-2.08-16.95,2.56-20.53,10.51-4.42,9.81-3.37,21.34,3.13,30.11,15.63,21.08,50.71,19.68,70.24,3.49ZM292.64,354.09c-3.34.04-6.32-1.29-7.99-3.73-1.55-2.26-2.26-5.48-.8-8.26,2.77-5.29,12.07-3.3,22.23-8.99,6.87-3.85,10.73-9.98,11.62-17.58,1.29-11.05-5.55-21.14-16.9-23.46-16.32-3.33-30.61,8.06-37.09,22.45-5.32,11.8-8.22,25.05-7.08,37.89.58,6.55,1.52,12.51,4.4,18.51,8.65,18.02,31.39,24.31,47.92,12.94,14.22-9.77,16.06-31.37,6.65-35.65-5.4-2.46-12.04,5.74-22.95,5.87ZM224.79,355.76c-4.47-.86-6.72-4.62-6.67-8.49.1-7.66,9.64-7.24,18.6-11.46,9.51-4.48,14.48-13.48,13.5-23.9-.97-10.24-8.24-18.06-18.76-19.13-17.82-1.81-31.35,12.11-36.16,28.84-5.07,17.62-5.92,43.39,5.95,58.26,6.96,8.72,17.15,12.61,28.25,11.22,17.54-2.2,29.47-17.91,26.77-35.29-.45-2.9-.86-5.39-3.24-6.84-8.67-5.29-15.34,9.27-28.25,6.79ZM380.44,300.06c-.05-2.05-.46-3.06-1.13-4.04-.86,1.25-.6,2.29-.8,3.72-.12.87,1.95,1.31,1.93.33ZM97.17,336.69c5.92,12.54,11.31,15.62,12.93,31.48.76,7.47,1.7,14.67,3.57,21.77s6.46,12.45,13.42,14.18c5.27,1.31,10.65-.3,14.75-3.75,11.55-9.7,2.84-24.46,4.53-32.83.42-2.1,1.9-3.55,3.84-3.58,6.72-.1,4.92,16.1,10.13,25.22,4.09,7.17,12.09,9.91,19.8,6.64,6.51-2.76,10.03-8.94,10.87-16.09,2.25-19.09-9.93-31.32-3.41-63.6.94-4.65.87-10.12-1.59-14.21-2.89-4.8-8.65-6.24-14.25-4.83-4.21,1.06-7.94,5.05-9.2,10.23-2.57,10.55,5.44,19.51,8.43,32.72,1.07,4.71,1.27,13.22-3.68,13.96-1.96.29-3.69-.41-4.98-1.73-12.36-12.66-3.98-45.03-18.3-48.06-2.94-.62-5.78.02-8.36,1.82-4.47,3.14-6.07,8.76-4.77,14.16l3.79,15.83c1.43,5.98,2.92,26.75-5.71,26.18-6.8-.45-8.26-15.44-8.17-20.79l.3-17.82c.08-4.59-1.09-9.34-4.94-12.26s-9.25-3.07-13.84-.94c-9.53,4.44-9.63,16.79-5.16,26.27ZM408.51,390.49c3.23-15.33-10.54-32.75,2.42-51.29,4.46-6.38,7.17-16.07-1.15-20.99-4.9-2.89-10.95-3.52-16.33-1.38-3.6,1.43-5.5,5.12-5.85,8.84-.9,9.71,5.43,18.85-2.67,33.15l-8.06,14.22c-3.11,5.49-4.57,11.6-3.34,17.71,1.78,8.82,8.99,14.37,17.5,14.44s15.52-5.46,17.47-14.7ZM451.78,384.07c-4.25-.63-8.17-2.71-9.38-6.91-.74-2.56-.42-5.09,1.24-7.15,3.44-4.27,11.07-1.41,19.02-2.48,10.11-1.36,17.84-8.79,19.57-18.26,1.82-9.99-2.79-19.42-11.79-24.4-16.11-8.91-33.63,1.12-43.37,15.89-8.39,12.72-13.45,27.16-13.4,42.46.02,7.9,1.65,15.3,6.37,21.54,8.9,11.76,24.31,16.63,38.44,12.47,10.84-3.19,18.76-12.96,19.16-24.21.13-3.78-1.36-7.01-3.73-8.84-6.7-5.15-14.23,1.03-22.1-.13ZM325.84,356.58c3.11-5.89,6.01-11.67,8.19-18.47l-6.14-3.52c-1.38,5.11-3.26,9.47-6.49,13.7,1.95,2.83,3.68,4.98,4.44,8.29ZM384.09,344.12c-4.42,1.13-8.3.65-12.31-.14-1.03,4.98-1.94,9.43-3.98,13.85l6.45,10.75c2.56-4.48,13.12-20.81,9.84-24.46ZM95.53,351.56c.19-2.6-.23-4.28-.83-6.01-2.01.76-3.06,1.28-4.43,1.96,2.1,1.37,3.51,2.53,5.26,4.04Z"/>
        <path class="cls-11" d="M95.02,413.05c-19.52,16.19-54.6,17.59-70.24-3.49-6.5-8.77-7.55-20.3-3.13-30.11,3.58-7.95,11.93-12.59,20.53-10.51,9.24,2.24,8.69,11.67,18.51,12.54,4.46.39,8.3-2.28,9.82-5.84,4.84-11.35-12.02-16.98-19.92-20.01-10.29-3.95-22.19-8.75-26.78-20.43-4.32-10.99-2.1-23.15,5.62-31.98,12.14-13.88,32.87-16.92,48.54-7.3,6.8,4.17,11.47,10.73,11.19,18.69-.3,8.61-7.13,14.59-15.4,14.14-13.53-.73-9.05-13.53-18.27-14.85-3.34-.48-6.65,1.15-8.47,4.21-2.37,3.98-1.11,8.59,1.81,11.89,11.24,12.69,46.14,13.37,56.94,44.4,5,14.35.96,28.94-10.77,38.67Z"/>
        <path class="cls-39" d="M97.17,336.69c-4.47-9.48-4.37-21.84,5.16-26.27,4.58-2.13,9.87-2.07,13.84.94s5.02,7.67,4.94,12.26l-.3,17.82c-.09,5.35,1.37,20.34,8.17,20.79,8.63.57,7.14-20.2,5.71-26.18l-3.79-15.83c-1.29-5.41.3-11.03,4.77-14.16,2.57-1.81,5.41-2.45,8.36-1.82,14.32,3.03,5.94,35.4,18.3,48.06,1.28,1.32,3.01,2.02,4.98,1.73,4.95-.74,4.75-9.25,3.68-13.96-2.99-13.22-11-22.18-8.43-32.72,1.26-5.18,4.99-9.17,9.2-10.23,5.6-1.41,11.36.02,14.25,4.83,2.46,4.09,2.53,9.55,1.59,14.21-6.52,32.29,5.66,44.52,3.41,63.6-.84,7.15-4.36,13.33-10.87,16.09-7.71,3.27-15.71.53-19.8-6.64-5.21-9.13-3.41-25.32-10.13-25.22-1.94.03-3.42,1.48-3.84,3.58-1.69,8.37,7.03,23.13-4.53,32.83-4.1,3.44-9.48,5.06-14.75,3.75-6.97-1.73-11.64-7.41-13.42-14.18s-2.8-14.3-3.57-21.77c-1.62-15.86-7.01-18.94-12.93-31.48Z"/>
        <path class="cls-11" d="M451.78,384.07c7.87,1.16,15.41-5.02,22.1.13,2.37,1.83,3.86,5.06,3.73,8.84-.4,11.25-8.31,21.02-19.16,24.21-14.12,4.16-29.54-.71-38.44-12.47-4.72-6.24-6.34-13.63-6.37-21.54-.05-15.31,5.02-29.74,13.4-42.46,9.75-14.78,27.26-24.8,43.37-15.89,9,4.98,13.62,14.4,11.79,24.4-1.73,9.47-9.46,16.9-19.57,18.26-7.95,1.07-15.58-1.79-19.02,2.48-1.66,2.06-1.98,4.59-1.24,7.15,1.21,4.2,5.13,6.28,9.38,6.91ZM457.53,356.91c5.83-3,8.56-10.2,6.49-16.12-1.31-3.75-5.89-4.87-9.66-3.81-6.84,1.92-11.75,10.35-9.14,17.21,1.73,4.52,8,4.94,12.3,2.72Z"/>
        <path class="cls-11" d="M292.64,354.09c10.91-.13,17.55-8.33,22.95-5.87,9.41,4.29,7.56,25.88-6.65,35.65-16.53,11.37-39.27,5.08-47.92-12.94-2.88-6-3.82-11.96-4.4-18.51-1.13-12.84,1.77-26.09,7.08-37.89,6.49-14.39,20.77-25.79,37.09-22.45,11.34,2.32,18.19,12.41,16.9,23.46-.89,7.6-4.75,13.73-11.62,17.58-10.16,5.69-19.46,3.71-22.23,8.99-1.46,2.79-.75,6,.8,8.26,1.67,2.44,4.65,3.77,7.99,3.73ZM290.8,328.85c7.22-2.37,11.32-10.83,8.71-17.74-1.75-4.62-7.73-5.22-11.75-2.64-4.81,3.09-7.15,8.83-6.62,14.43.44,4.63,4.67,7.58,9.66,5.95Z"/>
        <path class="cls-38" d="M359.48,394.14c-8.81,5.24-19.94,3.66-27.44-2.86-5.36-4.66-7.2-11.41-6.48-18.32,1.56-14.86,13.63-25.96,15.66-46.53,1.38-13.93-20.06-1.3-18.91-19.52.18-2.85,1.82-6.29,5.3-7.87,5.36-2.44,11.26,1.71,15.06-.79,3.99-2.62,2.54-9.81,2.62-14.43.1-6.01,4.03-10.78,9.98-11.32,5.01-.45,10.73,2.54,11.47,8.56.42,3.41-1.42,6.41-2.6,9.61-1.96,5.32-.21,11.49,5.15,13.3,3.55,1.2,12.23-1.17,15.94,5.01,1.65,2.75,1.26,5.72.21,8.68-2.18,6.15-8.21,9.17-14.67,6.68-4.46-1.71-9.17-.81-11.06,3.92-4.22,10.57-2.42,22.23,4.09,31.67,8.06,11.7,7.3,27.29-4.32,34.2Z"/>
        <path class="cls-3" d="M408.51,390.49c-1.94,9.23-9.03,14.76-17.47,14.7s-15.72-5.62-17.5-14.44c-1.23-6.11.22-12.22,3.34-17.71l8.06-14.22c8.11-14.3,1.77-23.44,2.67-33.15.34-3.72,2.25-7.41,5.85-8.84,5.38-2.14,11.43-1.51,16.33,1.38,8.32,4.92,5.61,14.61,1.15,20.99-12.96,18.55.8,35.96-2.42,51.29Z"/>
        <path class="cls-27" d="M410.32,304.41c-6.73,1.54-12.92-1.77-15.55-6.64-3.21-5.94-1.7-13.06,3.56-17.34,6.99-5.67,16.8-3.09,20.82,4.7,3.67,7.12.15,17.22-8.83,19.27Z"/>
        <path class="cls-41" d="M384.09,344.12c3.28,3.65-7.27,19.99-9.84,24.46l-6.45-10.75c2.04-4.42,2.95-8.87,3.98-13.85,4.01.79,7.89,1.27,12.31.14Z"/>
        <path class="cls-29" d="M325.84,356.58c-.76-3.32-2.49-5.47-4.44-8.29,3.23-4.23,5.1-8.58,6.49-13.7l6.14,3.52c-2.18,6.8-5.08,12.58-8.19,18.47Z"/>
        <path class="cls-46" d="M95.53,351.56c-1.75-1.51-3.16-2.67-5.26-4.04,1.37-.69,2.42-1.2,4.43-1.96.6,1.72,1.02,3.41.83,6.01Z"/>
        <path class="cls-31" d="M380.44,300.06c.02.98-2.05.55-1.93-.33.2-1.43-.05-2.47.8-3.72.67.98,1.08,1.99,1.13,4.04Z"/>
        <path class="cls-8" d="M457.53,356.91c-4.3,2.22-10.58,1.8-12.3-2.72-2.62-6.85,2.29-15.28,9.14-17.21,3.77-1.06,8.34.06,9.66,3.81,2.07,5.92-.66,13.12-6.49,16.12Z"/>
        <path class="cls-22" d="M290.8,328.85c-4.98,1.63-9.22-1.32-9.66-5.95-.53-5.6,1.81-11.34,6.62-14.43,4.01-2.58,10-1.99,11.75,2.64,2.61,6.91-1.5,15.38-8.71,17.74Z"/>
        <g>
          <path class="cls-11" d="M224.79,355.76c12.91,2.48,19.58-12.08,28.25-6.79,2.38,1.45,2.79,3.94,3.24,6.84,2.7,17.38-9.23,33.09-26.77,35.29-11.1,1.39-21.29-2.5-28.25-11.22-11.87-14.87-11.02-40.64-5.95-58.26,4.81-16.73,18.34-30.65,36.16-28.84,10.52,1.07,17.79,8.88,18.76,19.13.99,10.42-3.98,19.42-13.5,23.9-8.96,4.22-18.5,3.8-18.6,11.46-.05,3.87,2.2,7.63,6.67,8.49ZM224.91,330.46c9.05-4.3,10.3-17.68,4.77-21.02-2.76-1.67-5.77-1.37-8.3.1-7.56,4.4-9.46,17.45-3.79,20.85,2.13,1.28,4.75,1.28,7.33.06Z"/>
          <path class="cls-22" d="M224.91,330.46c-2.57,1.22-5.19,1.22-7.33-.06-5.67-3.4-3.76-16.46,3.79-20.85,2.53-1.47,5.55-1.77,8.3-.1,5.53,3.35,4.28,16.72-4.77,21.02Z"/>
        </g>
      </g>
    </g>
  </g>
</svg>